<?xml version="1.0" encoding="UTF-8" standalone="no"?>
<!DOCTYPE svg PUBLIC "-//W3C//DTD SVG 1.1//EN"
 "http://www.w3.org/Graphics/SVG/1.1/DTD/svg11.dtd">
<!-- Generated by graphviz version 2.50.0 (0)
 -->
<!-- Title: Tree Pages: 1 -->
<svg width="1078pt" height="581pt"
 viewBox="0.00 0.00 1078.00 581.00" xmlns="http://www.w3.org/2000/svg" xmlns:xlink="http://www.w3.org/1999/xlink">
<g id="graph0" class="graph" transform="scale(1 1) rotate(0) translate(4 577)">
<title>Tree</title>
<polygon fill="white" stroke="transparent" points="-4,4 -4,-577 1074,-577 1074,4 -4,4"/>
<!-- 0 -->
<g id="node1" class="node">
<title>0</title>
<path fill="#efb285" stroke="black" d="M696,-573C696,-573 554,-573 554,-573 548,-573 542,-567 542,-561 542,-561 542,-517 542,-517 542,-511 548,-505 554,-505 554,-505 696,-505 696,-505 702,-505 708,-511 708,-517 708,-517 708,-561 708,-561 708,-567 702,-573 696,-573"/>
<text text-anchor="start" x="580.5" y="-557.8" font-family="Helvetica,sans-Serif" font-size="14.00">Pclass_1 ≤ 0.5</text>
<text text-anchor="start" x="550" y="-542.8" font-family="Helvetica,sans-Serif" font-size="14.00">squared_error = 210.724</text>
<text text-anchor="start" x="580" y="-527.8" font-family="Helvetica,sans-Serif" font-size="14.00">samples = 714</text>
<text text-anchor="start" x="580" y="-512.8" font-family="Helvetica,sans-Serif" font-size="14.00">value = 29.699</text>
</g>
<!-- 1 -->
<g id="node2" class="node">
<title>1</title>
<path fill="#f1bb94" stroke="black" d="M604,-469C604,-469 462,-469 462,-469 456,-469 450,-463 450,-457 450,-457 450,-413 450,-413 450,-407 456,-401 462,-401 462,-401 604,-401 604,-401 610,-401 616,-407 616,-413 616,-413 616,-457 616,-457 616,-463 610,-469 604,-469"/>
<text text-anchor="start" x="498" y="-453.8" font-family="Helvetica,sans-Serif" font-size="14.00">Parch ≤ 0.5</text>
<text text-anchor="start" x="458" y="-438.8" font-family="Helvetica,sans-Serif" font-size="14.00">squared_error = 173.483</text>
<text text-anchor="start" x="488" y="-423.8" font-family="Helvetica,sans-Serif" font-size="14.00">samples = 528</text>
<text text-anchor="start" x="488" y="-408.8" font-family="Helvetica,sans-Serif" font-size="14.00">value = 26.693</text>
</g>
<!-- 0&#45;&gt;1 -->
<g id="edge1" class="edge">
<title>0&#45;&gt;1</title>
<path fill="none" stroke="black" d="M595.13,-504.88C587.1,-495.98 578.31,-486.24 569.94,-476.96"/>
<polygon fill="black" stroke="black" points="572.33,-474.38 563.03,-469.3 567.13,-479.07 572.33,-474.38"/>
<text text-anchor="middle" x="561.75" y="-490.57" font-family="Helvetica,sans-Serif" font-size="14.00">True</text>
</g>
<!-- 2 -->
<g id="node13" class="node">
<title>2</title>
<path fill="#ea975c" stroke="black" d="M874,-469C874,-469 732,-469 732,-469 726,-469 720,-463 720,-457 720,-457 720,-413 720,-413 720,-407 726,-401 732,-401 732,-401 874,-401 874,-401 880,-401 886,-407 886,-413 886,-413 886,-457 886,-457 886,-463 880,-469 874,-469"/>
<text text-anchor="start" x="768" y="-453.8" font-family="Helvetica,sans-Serif" font-size="14.00">Parch ≤ 1.5</text>
<text text-anchor="start" x="728" y="-438.8" font-family="Helvetica,sans-Serif" font-size="14.00">squared_error = 217.946</text>
<text text-anchor="start" x="758" y="-423.8" font-family="Helvetica,sans-Serif" font-size="14.00">samples = 186</text>
<text text-anchor="start" x="758" y="-408.8" font-family="Helvetica,sans-Serif" font-size="14.00">value = 38.233</text>
</g>
<!-- 0&#45;&gt;2 -->
<g id="edge12" class="edge">
<title>0&#45;&gt;2</title>
<path fill="none" stroke="black" d="M682.79,-504.88C699.82,-495.12 718.6,-484.37 736.14,-474.31"/>
<polygon fill="black" stroke="black" points="738.26,-477.13 745.19,-469.12 734.78,-471.06 738.26,-477.13"/>
<text text-anchor="middle" x="738.65" y="-489.55" font-family="Helvetica,sans-Serif" font-size="14.00">False</text>
</g>
<!-- 3 -->
<g id="node3" class="node">
<title>3</title>
<path fill="#efb286" stroke="black" d="M334,-365C334,-365 192,-365 192,-365 186,-365 180,-359 180,-353 180,-353 180,-309 180,-309 180,-303 186,-297 192,-297 192,-297 334,-297 334,-297 340,-297 346,-303 346,-309 346,-309 346,-353 346,-353 346,-359 340,-365 334,-365"/>
<text text-anchor="start" x="218.5" y="-349.8" font-family="Helvetica,sans-Serif" font-size="14.00">Pclass_2 ≤ 0.5</text>
<text text-anchor="start" x="188" y="-334.8" font-family="Helvetica,sans-Serif" font-size="14.00">squared_error = 122.819</text>
<text text-anchor="start" x="218" y="-319.8" font-family="Helvetica,sans-Serif" font-size="14.00">samples = 387</text>
<text text-anchor="start" x="218" y="-304.8" font-family="Helvetica,sans-Serif" font-size="14.00">value = 29.503</text>
</g>
<!-- 1&#45;&gt;3 -->
<g id="edge2" class="edge">
<title>1&#45;&gt;3</title>
<path fill="none" stroke="black" d="M449.79,-402.56C420.02,-391.32 386.29,-378.58 355.76,-367.04"/>
<polygon fill="black" stroke="black" points="356.99,-363.77 346.4,-363.51 354.52,-370.32 356.99,-363.77"/>
</g>
<!-- 4 -->
<g id="node6" class="node">
<title>4</title>
<path fill="#f6d3b9" stroke="black" d="M604,-365C604,-365 462,-365 462,-365 456,-365 450,-359 450,-353 450,-353 450,-309 450,-309 450,-303 456,-297 462,-297 462,-297 604,-297 604,-297 610,-297 616,-303 616,-309 616,-309 616,-353 616,-353 616,-359 610,-365 604,-365"/>
<text text-anchor="start" x="498" y="-349.8" font-family="Helvetica,sans-Serif" font-size="14.00">SibSp ≤ 1.5</text>
<text text-anchor="start" x="458" y="-334.8" font-family="Helvetica,sans-Serif" font-size="14.00">squared_error = 231.391</text>
<text text-anchor="start" x="488" y="-319.8" font-family="Helvetica,sans-Serif" font-size="14.00">samples = 141</text>
<text text-anchor="start" x="492" y="-304.8" font-family="Helvetica,sans-Serif" font-size="14.00">value = 18.98</text>
</g>
<!-- 1&#45;&gt;4 -->
<g id="edge5" class="edge">
<title>1&#45;&gt;4</title>
<path fill="none" stroke="black" d="M533,-400.88C533,-392.78 533,-383.98 533,-375.47"/>
<polygon fill="black" stroke="black" points="536.5,-375.3 533,-365.3 529.5,-375.3 536.5,-375.3"/>
</g>
<!-- 13 -->
<g id="node4" class="node">
<title>13</title>
<path fill="#f0b78e" stroke="black" d="M154,-253.5C154,-253.5 12,-253.5 12,-253.5 6,-253.5 0,-247.5 0,-241.5 0,-241.5 0,-212.5 0,-212.5 0,-206.5 6,-200.5 12,-200.5 12,-200.5 154,-200.5 154,-200.5 160,-200.5 166,-206.5 166,-212.5 166,-212.5 166,-241.5 166,-241.5 166,-247.5 160,-253.5 154,-253.5"/>
<text text-anchor="start" x="8" y="-238.3" font-family="Helvetica,sans-Serif" font-size="14.00">squared_error = 109.012</text>
<text text-anchor="start" x="38" y="-223.3" font-family="Helvetica,sans-Serif" font-size="14.00">samples = 264</text>
<text text-anchor="start" x="38" y="-208.3" font-family="Helvetica,sans-Serif" font-size="14.00">value = 27.835</text>
</g>
<!-- 3&#45;&gt;13 -->
<g id="edge3" class="edge">
<title>3&#45;&gt;13</title>
<path fill="none" stroke="black" d="M204.56,-296.88C182.82,-284.57 158.27,-270.65 136.96,-258.57"/>
<polygon fill="black" stroke="black" points="138.46,-255.41 128.04,-253.52 135.01,-261.5 138.46,-255.41"/>
</g>
<!-- 14 -->
<g id="node5" class="node">
<title>14</title>
<path fill="#eda775" stroke="black" d="M330,-253.5C330,-253.5 196,-253.5 196,-253.5 190,-253.5 184,-247.5 184,-241.5 184,-241.5 184,-212.5 184,-212.5 184,-206.5 190,-200.5 196,-200.5 196,-200.5 330,-200.5 330,-200.5 336,-200.5 342,-206.5 342,-212.5 342,-212.5 342,-241.5 342,-241.5 342,-247.5 336,-253.5 330,-253.5"/>
<text text-anchor="start" x="192" y="-238.3" font-family="Helvetica,sans-Serif" font-size="14.00">squared_error = 133.68</text>
<text text-anchor="start" x="218" y="-223.3" font-family="Helvetica,sans-Serif" font-size="14.00">samples = 123</text>
<text text-anchor="start" x="218" y="-208.3" font-family="Helvetica,sans-Serif" font-size="14.00">value = 33.081</text>
</g>
<!-- 3&#45;&gt;14 -->
<g id="edge4" class="edge">
<title>3&#45;&gt;14</title>
<path fill="none" stroke="black" d="M263,-296.88C263,-286.33 263,-274.6 263,-263.85"/>
<polygon fill="black" stroke="black" points="266.5,-263.52 263,-253.52 259.5,-263.52 266.5,-263.52"/>
</g>
<!-- 5 -->
<g id="node7" class="node">
<title>5</title>
<path fill="#f3c5a5" stroke="black" d="M514,-261C514,-261 372,-261 372,-261 366,-261 360,-255 360,-249 360,-249 360,-205 360,-205 360,-199 366,-193 372,-193 372,-193 514,-193 514,-193 520,-193 526,-199 526,-205 526,-205 526,-249 526,-249 526,-255 520,-261 514,-261"/>
<text text-anchor="start" x="392" y="-245.8" font-family="Helvetica,sans-Serif" font-size="14.00">Survived_0 ≤ 0.5</text>
<text text-anchor="start" x="368" y="-230.8" font-family="Helvetica,sans-Serif" font-size="14.00">squared_error = 241.277</text>
<text text-anchor="start" x="398" y="-215.8" font-family="Helvetica,sans-Serif" font-size="14.00">samples = 101</text>
<text text-anchor="start" x="398" y="-200.8" font-family="Helvetica,sans-Serif" font-size="14.00">value = 23.245</text>
</g>
<!-- 4&#45;&gt;5 -->
<g id="edge6" class="edge">
<title>4&#45;&gt;5</title>
<path fill="none" stroke="black" d="M503.78,-296.88C495.92,-287.98 487.33,-278.24 479.14,-268.96"/>
<polygon fill="black" stroke="black" points="481.62,-266.48 472.38,-261.3 476.37,-271.11 481.62,-266.48"/>
</g>
<!-- 6 -->
<g id="node12" class="node">
<title>6</title>
<path fill="#fdf4ed" stroke="black" d="M690,-253.5C690,-253.5 556,-253.5 556,-253.5 550,-253.5 544,-247.5 544,-241.5 544,-241.5 544,-212.5 544,-212.5 544,-206.5 550,-200.5 556,-200.5 556,-200.5 690,-200.5 690,-200.5 696,-200.5 702,-206.5 702,-212.5 702,-212.5 702,-241.5 702,-241.5 702,-247.5 696,-253.5 690,-253.5"/>
<text text-anchor="start" x="552" y="-238.3" font-family="Helvetica,sans-Serif" font-size="14.00">squared_error = 44.558</text>
<text text-anchor="start" x="582" y="-223.3" font-family="Helvetica,sans-Serif" font-size="14.00">samples = 40</text>
<text text-anchor="start" x="582" y="-208.3" font-family="Helvetica,sans-Serif" font-size="14.00">value = 8.212</text>
</g>
<!-- 4&#45;&gt;6 -->
<g id="edge11" class="edge">
<title>4&#45;&gt;6</title>
<path fill="none" stroke="black" d="M562.22,-296.88C572.31,-285.45 583.62,-272.63 593.71,-261.19"/>
<polygon fill="black" stroke="black" points="596.49,-263.33 600.48,-253.52 591.24,-258.7 596.49,-263.33"/>
</g>
<!-- 9 -->
<g id="node8" class="node">
<title>9</title>
<path fill="#f7d7c1" stroke="black" d="M422,-157C422,-157 280,-157 280,-157 274,-157 268,-151 268,-145 268,-145 268,-101 268,-101 268,-95 274,-89 280,-89 280,-89 422,-89 422,-89 428,-89 434,-95 434,-101 434,-101 434,-145 434,-145 434,-151 428,-157 422,-157"/>
<text text-anchor="start" x="303.5" y="-141.8" font-family="Helvetica,sans-Serif" font-size="14.00">Sex_male ≤ 0.5</text>
<text text-anchor="start" x="276" y="-126.8" font-family="Helvetica,sans-Serif" font-size="14.00">squared_error = 232.065</text>
<text text-anchor="start" x="310" y="-111.8" font-family="Helvetica,sans-Serif" font-size="14.00">samples = 58</text>
<text text-anchor="start" x="306" y="-96.8" font-family="Helvetica,sans-Serif" font-size="14.00">value = 17.409</text>
</g>
<!-- 5&#45;&gt;9 -->
<g id="edge7" class="edge">
<title>5&#45;&gt;9</title>
<path fill="none" stroke="black" d="M413.13,-192.88C405.1,-183.98 396.31,-174.24 387.94,-164.96"/>
<polygon fill="black" stroke="black" points="390.33,-162.38 381.03,-157.3 385.13,-167.07 390.33,-162.38"/>
</g>
<!-- 10 -->
<g id="node11" class="node">
<title>10</title>
<path fill="#eead7f" stroke="black" d="M606,-149.5C606,-149.5 464,-149.5 464,-149.5 458,-149.5 452,-143.5 452,-137.5 452,-137.5 452,-108.5 452,-108.5 452,-102.5 458,-96.5 464,-96.5 464,-96.5 606,-96.5 606,-96.5 612,-96.5 618,-102.5 618,-108.5 618,-108.5 618,-137.5 618,-137.5 618,-143.5 612,-149.5 606,-149.5"/>
<text text-anchor="start" x="460" y="-134.3" font-family="Helvetica,sans-Serif" font-size="14.00">squared_error = 145.812</text>
<text text-anchor="start" x="494" y="-119.3" font-family="Helvetica,sans-Serif" font-size="14.00">samples = 43</text>
<text text-anchor="start" x="490.5" y="-104.3" font-family="Helvetica,sans-Serif" font-size="14.00">value = 31.116</text>
</g>
<!-- 5&#45;&gt;10 -->
<g id="edge10" class="edge">
<title>5&#45;&gt;10</title>
<path fill="none" stroke="black" d="M472.87,-192.88C483.19,-181.45 494.74,-168.63 505.06,-157.19"/>
<polygon fill="black" stroke="black" points="507.88,-159.29 511.98,-149.52 502.69,-154.6 507.88,-159.29"/>
</g>
<!-- 11 -->
<g id="node9" class="node">
<title>11</title>
<path fill="#f4c8a9" stroke="black" d="M330,-53C330,-53 196,-53 196,-53 190,-53 184,-47 184,-41 184,-41 184,-12 184,-12 184,-6 190,0 196,0 196,0 330,0 330,0 336,0 342,-6 342,-12 342,-12 342,-41 342,-41 342,-47 336,-53 330,-53"/>
<text text-anchor="start" x="192" y="-37.8" font-family="Helvetica,sans-Serif" font-size="14.00">squared_error = 223.27</text>
<text text-anchor="start" x="222" y="-22.8" font-family="Helvetica,sans-Serif" font-size="14.00">samples = 42</text>
<text text-anchor="start" x="218" y="-7.8" font-family="Helvetica,sans-Serif" font-size="14.00">value = 22.333</text>
</g>
<!-- 9&#45;&gt;11 -->
<g id="edge8" class="edge">
<title>9&#45;&gt;11</title>
<path fill="none" stroke="black" d="M320.22,-88.95C311.7,-79.8 302.46,-69.87 293.93,-60.71"/>
<polygon fill="black" stroke="black" points="296.34,-58.17 286.97,-53.24 291.22,-62.94 296.34,-58.17"/>
</g>
<!-- 12 -->
<g id="node10" class="node">
<title>12</title>
<path fill="#ffffff" stroke="black" d="M506,-53C506,-53 372,-53 372,-53 366,-53 360,-47 360,-41 360,-41 360,-12 360,-12 360,-6 366,0 372,0 372,0 506,0 506,0 512,0 518,-6 518,-12 518,-12 518,-41 518,-41 518,-47 512,-53 506,-53"/>
<text text-anchor="start" x="368" y="-37.8" font-family="Helvetica,sans-Serif" font-size="14.00">squared_error = 24.453</text>
<text text-anchor="start" x="398" y="-22.8" font-family="Helvetica,sans-Serif" font-size="14.00">samples = 16</text>
<text text-anchor="start" x="398" y="-7.8" font-family="Helvetica,sans-Serif" font-size="14.00">value = 4.484</text>
</g>
<!-- 9&#45;&gt;12 -->
<g id="edge9" class="edge">
<title>9&#45;&gt;12</title>
<path fill="none" stroke="black" d="M381.78,-88.95C390.3,-79.8 399.54,-69.87 408.07,-60.71"/>
<polygon fill="black" stroke="black" points="410.78,-62.94 415.03,-53.24 405.66,-58.17 410.78,-62.94"/>
</g>
<!-- 7 -->
<g id="node14" class="node">
<title>7</title>
<path fill="#e89253" stroke="black" d="M874,-365C874,-365 732,-365 732,-365 726,-365 720,-359 720,-353 720,-353 720,-309 720,-309 720,-303 726,-297 732,-297 732,-297 874,-297 874,-297 880,-297 886,-303 886,-309 886,-309 886,-353 886,-353 886,-359 880,-365 874,-365"/>
<text text-anchor="start" x="764.5" y="-349.8" font-family="Helvetica,sans-Serif" font-size="14.00">Fare ≤ 38.95</text>
<text text-anchor="start" x="728" y="-334.8" font-family="Helvetica,sans-Serif" font-size="14.00">squared_error = 184.746</text>
<text text-anchor="start" x="758" y="-319.8" font-family="Helvetica,sans-Serif" font-size="14.00">samples = 164</text>
<text text-anchor="start" x="758" y="-304.8" font-family="Helvetica,sans-Serif" font-size="14.00">value = 40.155</text>
</g>
<!-- 2&#45;&gt;7 -->
<g id="edge13" class="edge">
<title>2&#45;&gt;7</title>
<path fill="none" stroke="black" d="M803,-400.88C803,-392.78 803,-383.98 803,-375.47"/>
<polygon fill="black" stroke="black" points="806.5,-375.3 803,-365.3 799.5,-375.3 806.5,-375.3"/>
</g>
<!-- 8 -->
<g id="node17" class="node">
<title>8</title>
<path fill="#f3c3a1" stroke="black" d="M1058,-357.5C1058,-357.5 916,-357.5 916,-357.5 910,-357.5 904,-351.5 904,-345.5 904,-345.5 904,-316.5 904,-316.5 904,-310.5 910,-304.5 916,-304.5 916,-304.5 1058,-304.5 1058,-304.5 1064,-304.5 1070,-310.5 1070,-316.5 1070,-316.5 1070,-345.5 1070,-345.5 1070,-351.5 1064,-357.5 1058,-357.5"/>
<text text-anchor="start" x="912" y="-342.3" font-family="Helvetica,sans-Serif" font-size="14.00">squared_error = 232.613</text>
<text text-anchor="start" x="946" y="-327.3" font-family="Helvetica,sans-Serif" font-size="14.00">samples = 22</text>
<text text-anchor="start" x="942" y="-312.3" font-family="Helvetica,sans-Serif" font-size="14.00">value = 23.905</text>
</g>
<!-- 2&#45;&gt;8 -->
<g id="edge16" class="edge">
<title>2&#45;&gt;8</title>
<path fill="none" stroke="black" d="M862.74,-400.88C885.06,-388.51 910.28,-374.53 932.14,-362.41"/>
<polygon fill="black" stroke="black" points="933.91,-365.43 940.96,-357.52 930.52,-359.31 933.91,-365.43"/>
</g>
<!-- 15 -->
<g id="node15" class="node">
<title>15</title>
<path fill="#e58139" stroke="black" d="M874,-253.5C874,-253.5 732,-253.5 732,-253.5 726,-253.5 720,-247.5 720,-241.5 720,-241.5 720,-212.5 720,-212.5 720,-206.5 726,-200.5 732,-200.5 732,-200.5 874,-200.5 874,-200.5 880,-200.5 886,-206.5 886,-212.5 886,-212.5 886,-241.5 886,-241.5 886,-247.5 880,-253.5 874,-253.5"/>
<text text-anchor="start" x="728" y="-238.3" font-family="Helvetica,sans-Serif" font-size="14.00">squared_error = 168.518</text>
<text text-anchor="start" x="762" y="-223.3" font-family="Helvetica,sans-Serif" font-size="14.00">samples = 51</text>
<text text-anchor="start" x="758" y="-208.3" font-family="Helvetica,sans-Serif" font-size="14.00">value = 45.539</text>
</g>
<!-- 7&#45;&gt;15 -->
<g id="edge14" class="edge">
<title>7&#45;&gt;15</title>
<path fill="none" stroke="black" d="M803,-296.88C803,-286.33 803,-274.6 803,-263.85"/>
<polygon fill="black" stroke="black" points="806.5,-263.52 803,-253.52 799.5,-263.52 806.5,-263.52"/>
</g>
<!-- 16 -->
<g id="node16" class="node">
<title>16</title>
<path fill="#ea995f" stroke="black" d="M1058,-253.5C1058,-253.5 916,-253.5 916,-253.5 910,-253.5 904,-247.5 904,-241.5 904,-241.5 904,-212.5 904,-212.5 904,-206.5 910,-200.5 916,-200.5 916,-200.5 1058,-200.5 1058,-200.5 1064,-200.5 1070,-206.5 1070,-212.5 1070,-212.5 1070,-241.5 1070,-241.5 1070,-247.5 1064,-253.5 1058,-253.5"/>
<text text-anchor="start" x="912" y="-238.3" font-family="Helvetica,sans-Serif" font-size="14.00">squared_error = 173.084</text>
<text text-anchor="start" x="942.5" y="-223.3" font-family="Helvetica,sans-Serif" font-size="14.00">samples = 113</text>
<text text-anchor="start" x="942" y="-208.3" font-family="Helvetica,sans-Serif" font-size="14.00">value = 37.726</text>
</g>
<!-- 7&#45;&gt;16 -->
<g id="edge15" class="edge">
<title>7&#45;&gt;16</title>
<path fill="none" stroke="black" d="M862.74,-296.88C885.06,-284.51 910.28,-270.53 932.14,-258.41"/>
<polygon fill="black" stroke="black" points="933.91,-261.43 940.96,-253.52 930.52,-255.31 933.91,-261.43"/>
</g>
</g>
</svg>
