<?xml version="1.0" encoding="UTF-8" standalone="no"?>
<!DOCTYPE svg PUBLIC "-//W3C//DTD SVG 1.1//EN"
 "http://www.w3.org/Graphics/SVG/1.1/DTD/svg11.dtd">
<!-- Generated by graphviz version 2.38.0 (20140413.2041)
 -->
<!-- Title: Tree Pages: 1 -->
<svg width="766pt" height="373pt"
 viewBox="0.00 0.00 766.00 373.00" xmlns="http://www.w3.org/2000/svg" xmlns:xlink="http://www.w3.org/1999/xlink">
<g id="graph0" class="graph" transform="scale(1 1) rotate(0) translate(4 369)">
<title>Tree</title>
<polygon fill="white" stroke="none" points="-4,4 -4,-369 762,-369 762,4 -4,4"/>
<!-- 0 -->
<g id="node1" class="node"><title>0</title>
<path fill="#eeac7d" stroke="black" d="M455,-365C455,-365 303,-365 303,-365 297,-365 291,-359 291,-353 291,-353 291,-309 291,-309 291,-303 297,-297 303,-297 303,-297 455,-297 455,-297 461,-297 467,-303 467,-309 467,-309 467,-353 467,-353 467,-359 461,-365 455,-365"/>
<text text-anchor="start" x="331.5" y="-349.8" font-family="Helvetica,sans-Serif" font-size="14.00">Pclass_1 ≤ 0.5</text>
<text text-anchor="start" x="299" y="-334.8" font-family="Helvetica,sans-Serif" font-size="14.00">squared_error = 214.462</text>
<text text-anchor="start" x="331.5" y="-319.8" font-family="Helvetica,sans-Serif" font-size="14.00">samples = 606</text>
<text text-anchor="start" x="332" y="-304.8" font-family="Helvetica,sans-Serif" font-size="14.00">value = 29.717</text>
</g>
<!-- 1 -->
<g id="node2" class="node"><title>1</title>
<path fill="#f1b991" stroke="black" d="M358,-261C358,-261 206,-261 206,-261 200,-261 194,-255 194,-249 194,-249 194,-205 194,-205 194,-199 200,-193 206,-193 206,-193 358,-193 358,-193 364,-193 370,-199 370,-205 370,-205 370,-249 370,-249 370,-255 364,-261 358,-261"/>
<text text-anchor="start" x="245.5" y="-245.8" font-family="Helvetica,sans-Serif" font-size="14.00">Parch ≤ 0.5</text>
<text text-anchor="start" x="202" y="-230.8" font-family="Helvetica,sans-Serif" font-size="14.00">squared_error = 172.757</text>
<text text-anchor="start" x="234.5" y="-215.8" font-family="Helvetica,sans-Serif" font-size="14.00">samples = 451</text>
<text text-anchor="start" x="235" y="-200.8" font-family="Helvetica,sans-Serif" font-size="14.00">value = 26.541</text>
</g>
<!-- 0&#45;&gt;1 -->
<g id="edge1" class="edge"><title>0&#45;&gt;1</title>
<path fill="none" stroke="black" d="M347.507,-296.884C338.951,-287.887 329.588,-278.041 320.684,-268.678"/>
<polygon fill="black" stroke="black" points="323.095,-266.134 313.667,-261.299 318.022,-270.958 323.095,-266.134"/>
<text text-anchor="middle" x="313.039" y="-282.591" font-family="Helvetica,sans-Serif" font-size="14.00">True</text>
</g>
<!-- 2 -->
<g id="node7" class="node"><title>2</title>
<path fill="#e68844" stroke="black" d="M552,-261C552,-261 400,-261 400,-261 394,-261 388,-255 388,-249 388,-249 388,-205 388,-205 388,-199 394,-193 400,-193 400,-193 552,-193 552,-193 558,-193 564,-199 564,-205 564,-205 564,-249 564,-249 564,-255 558,-261 552,-261"/>
<text text-anchor="start" x="439.5" y="-245.8" font-family="Helvetica,sans-Serif" font-size="14.00">Parch ≤ 1.5</text>
<text text-anchor="start" x="396" y="-230.8" font-family="Helvetica,sans-Serif" font-size="14.00">squared_error = 221.065</text>
<text text-anchor="start" x="428.5" y="-215.8" font-family="Helvetica,sans-Serif" font-size="14.00">samples = 155</text>
<text text-anchor="start" x="429" y="-200.8" font-family="Helvetica,sans-Serif" font-size="14.00">value = 38.958</text>
</g>
<!-- 0&#45;&gt;2 -->
<g id="edge6" class="edge"><title>0&#45;&gt;2</title>
<path fill="none" stroke="black" d="M410.493,-296.884C419.049,-287.887 428.412,-278.041 437.316,-268.678"/>
<polygon fill="black" stroke="black" points="439.978,-270.958 444.333,-261.299 434.905,-266.134 439.978,-270.958"/>
<text text-anchor="middle" x="444.961" y="-282.591" font-family="Helvetica,sans-Serif" font-size="14.00">False</text>
</g>
<!-- 3 -->
<g id="node3" class="node"><title>3</title>
<path fill="#eead7e" stroke="black" d="M164,-149.5C164,-149.5 12,-149.5 12,-149.5 6,-149.5 0,-143.5 0,-137.5 0,-137.5 0,-108.5 0,-108.5 0,-102.5 6,-96.5 12,-96.5 12,-96.5 164,-96.5 164,-96.5 170,-96.5 176,-102.5 176,-108.5 176,-108.5 176,-137.5 176,-137.5 176,-143.5 170,-149.5 164,-149.5"/>
<text text-anchor="start" x="8" y="-134.3" font-family="Helvetica,sans-Serif" font-size="14.00">squared_error = 120.945</text>
<text text-anchor="start" x="40.5" y="-119.3" font-family="Helvetica,sans-Serif" font-size="14.00">samples = 328</text>
<text text-anchor="start" x="41" y="-104.3" font-family="Helvetica,sans-Serif" font-size="14.00">value = 29.515</text>
</g>
<!-- 1&#45;&gt;3 -->
<g id="edge2" class="edge"><title>1&#45;&gt;3</title>
<path fill="none" stroke="black" d="M219.014,-192.884C195.377,-180.456 168.655,-166.406 145.538,-154.252"/>
<polygon fill="black" stroke="black" points="147.018,-151.076 136.538,-149.52 143.76,-157.272 147.018,-151.076"/>
</g>
<!-- 4 -->
<g id="node4" class="node"><title>4</title>
<path fill="#f7d8c2" stroke="black" d="M358,-157C358,-157 206,-157 206,-157 200,-157 194,-151 194,-145 194,-145 194,-101 194,-101 194,-95 200,-89 206,-89 206,-89 358,-89 358,-89 364,-89 370,-95 370,-101 370,-101 370,-145 370,-145 370,-151 364,-157 358,-157"/>
<text text-anchor="start" x="244.5" y="-141.8" font-family="Helvetica,sans-Serif" font-size="14.00">SibSp ≤ 1.5</text>
<text text-anchor="start" x="202" y="-126.8" font-family="Helvetica,sans-Serif" font-size="14.00">squared_error = 224.408</text>
<text text-anchor="start" x="234.5" y="-111.8" font-family="Helvetica,sans-Serif" font-size="14.00">samples = 123</text>
<text text-anchor="start" x="235" y="-96.8" font-family="Helvetica,sans-Serif" font-size="14.00">value = 18.608</text>
</g>
<!-- 1&#45;&gt;4 -->
<g id="edge3" class="edge"><title>1&#45;&gt;4</title>
<path fill="none" stroke="black" d="M282,-192.884C282,-184.778 282,-175.982 282,-167.472"/>
<polygon fill="black" stroke="black" points="285.5,-167.299 282,-157.299 278.5,-167.299 285.5,-167.299"/>
</g>
<!-- 5 -->
<g id="node5" class="node"><title>5</title>
<path fill="#f4c7a8" stroke="black" d="M263,-53C263,-53 111,-53 111,-53 105,-53 99,-47 99,-41 99,-41 99,-12 99,-12 99,-6 105,-0 111,-0 111,-0 263,-0 263,-0 269,-0 275,-6 275,-12 275,-12 275,-41 275,-41 275,-47 269,-53 263,-53"/>
<text text-anchor="start" x="107" y="-37.8" font-family="Helvetica,sans-Serif" font-size="14.00">squared_error = 242.594</text>
<text text-anchor="start" x="143.5" y="-22.8" font-family="Helvetica,sans-Serif" font-size="14.00">samples = 86</text>
<text text-anchor="start" x="140" y="-7.8" font-family="Helvetica,sans-Serif" font-size="14.00">value = 22.838</text>
</g>
<!-- 4&#45;&gt;5 -->
<g id="edge4" class="edge"><title>4&#45;&gt;5</title>
<path fill="none" stroke="black" d="M248.774,-88.9485C239.485,-79.709 229.394,-69.671 220.112,-60.4381"/>
<polygon fill="black" stroke="black" points="222.431,-57.8077 212.873,-53.2367 217.494,-62.7705 222.431,-57.8077"/>
</g>
<!-- 6 -->
<g id="node6" class="node"><title>6</title>
<path fill="#ffffff" stroke="black" d="M448.5,-53C448.5,-53 305.5,-53 305.5,-53 299.5,-53 293.5,-47 293.5,-41 293.5,-41 293.5,-12 293.5,-12 293.5,-6 299.5,-0 305.5,-0 305.5,-0 448.5,-0 448.5,-0 454.5,-0 460.5,-6 460.5,-12 460.5,-12 460.5,-41 460.5,-41 460.5,-47 454.5,-53 448.5,-53"/>
<text text-anchor="start" x="301.5" y="-37.8" font-family="Helvetica,sans-Serif" font-size="14.00">squared_error = 43.898</text>
<text text-anchor="start" x="333.5" y="-22.8" font-family="Helvetica,sans-Serif" font-size="14.00">samples = 37</text>
<text text-anchor="start" x="334" y="-7.8" font-family="Helvetica,sans-Serif" font-size="14.00">value = 8.777</text>
</g>
<!-- 4&#45;&gt;6 -->
<g id="edge5" class="edge"><title>4&#45;&gt;6</title>
<path fill="none" stroke="black" d="M315.226,-88.9485C324.515,-79.709 334.606,-69.671 343.888,-60.4381"/>
<polygon fill="black" stroke="black" points="346.506,-62.7705 351.127,-53.2367 341.569,-57.8077 346.506,-62.7705"/>
</g>
<!-- 7 -->
<g id="node8" class="node"><title>7</title>
<path fill="#e58139" stroke="black" d="M552,-149.5C552,-149.5 400,-149.5 400,-149.5 394,-149.5 388,-143.5 388,-137.5 388,-137.5 388,-108.5 388,-108.5 388,-102.5 394,-96.5 400,-96.5 400,-96.5 552,-96.5 552,-96.5 558,-96.5 564,-102.5 564,-108.5 564,-108.5 564,-137.5 564,-137.5 564,-143.5 558,-149.5 552,-149.5"/>
<text text-anchor="start" x="396" y="-134.3" font-family="Helvetica,sans-Serif" font-size="14.00">squared_error = 188.117</text>
<text text-anchor="start" x="428.5" y="-119.3" font-family="Helvetica,sans-Serif" font-size="14.00">samples = 138</text>
<text text-anchor="start" x="429" y="-104.3" font-family="Helvetica,sans-Serif" font-size="14.00">value = 40.692</text>
</g>
<!-- 2&#45;&gt;7 -->
<g id="edge7" class="edge"><title>2&#45;&gt;7</title>
<path fill="none" stroke="black" d="M476,-192.884C476,-182.326 476,-170.597 476,-159.854"/>
<polygon fill="black" stroke="black" points="479.5,-159.52 476,-149.52 472.5,-159.52 479.5,-159.52"/>
</g>
<!-- 8 -->
<g id="node9" class="node"><title>8</title>
<path fill="#f2bf9b" stroke="black" d="M746,-149.5C746,-149.5 594,-149.5 594,-149.5 588,-149.5 582,-143.5 582,-137.5 582,-137.5 582,-108.5 582,-108.5 582,-102.5 588,-96.5 594,-96.5 594,-96.5 746,-96.5 746,-96.5 752,-96.5 758,-102.5 758,-108.5 758,-108.5 758,-137.5 758,-137.5 758,-143.5 752,-149.5 746,-149.5"/>
<text text-anchor="start" x="590" y="-134.3" font-family="Helvetica,sans-Serif" font-size="14.00">squared_error = 265.858</text>
<text text-anchor="start" x="626.5" y="-119.3" font-family="Helvetica,sans-Serif" font-size="14.00">samples = 17</text>
<text text-anchor="start" x="623" y="-104.3" font-family="Helvetica,sans-Serif" font-size="14.00">value = 24.878</text>
</g>
<!-- 2&#45;&gt;8 -->
<g id="edge8" class="edge"><title>2&#45;&gt;8</title>
<path fill="none" stroke="black" d="M538.986,-192.884C562.623,-180.456 589.345,-166.406 612.462,-154.252"/>
<polygon fill="black" stroke="black" points="614.24,-157.272 621.462,-149.52 610.982,-151.076 614.24,-157.272"/>
</g>
</g>
</svg>
