<?xml version="1.0" encoding="UTF-8" standalone="no"?>
<!DOCTYPE svg PUBLIC "-//W3C//DTD SVG 1.1//EN"
 "http://www.w3.org/Graphics/SVG/1.1/DTD/svg11.dtd">
<!-- Generated by graphviz version 2.38.0 (20140413.2041)
 -->
<!-- Title: Tree Pages: 1 -->
<svg width="1138pt" height="581pt"
 viewBox="0.00 0.00 1138.00 581.00" xmlns="http://www.w3.org/2000/svg" xmlns:xlink="http://www.w3.org/1999/xlink">
<g id="graph0" class="graph" transform="scale(1 1) rotate(0) translate(4 577)">
<title>Tree</title>
<polygon fill="white" stroke="none" points="-4,4 -4,-577 1134,-577 1134,4 -4,4"/>
<!-- 0 -->
<g id="node1" class="node"><title>0</title>
<path fill="#efb285" stroke="black" d="M781,-573C781,-573 629,-573 629,-573 623,-573 617,-567 617,-561 617,-561 617,-517 617,-517 617,-511 623,-505 629,-505 629,-505 781,-505 781,-505 787,-505 793,-511 793,-517 793,-517 793,-561 793,-561 793,-567 787,-573 781,-573"/>
<text text-anchor="start" x="657.5" y="-557.8" font-family="Helvetica,sans-Serif" font-size="14.00">Pclass_1 ≤ 0.5</text>
<text text-anchor="start" x="625" y="-542.8" font-family="Helvetica,sans-Serif" font-size="14.00">squared_error = 210.724</text>
<text text-anchor="start" x="657.5" y="-527.8" font-family="Helvetica,sans-Serif" font-size="14.00">samples = 714</text>
<text text-anchor="start" x="658" y="-512.8" font-family="Helvetica,sans-Serif" font-size="14.00">value = 29.699</text>
</g>
<!-- 1 -->
<g id="node2" class="node"><title>1</title>
<path fill="#f1bb94" stroke="black" d="M639,-469C639,-469 487,-469 487,-469 481,-469 475,-463 475,-457 475,-457 475,-413 475,-413 475,-407 481,-401 487,-401 487,-401 639,-401 639,-401 645,-401 651,-407 651,-413 651,-413 651,-457 651,-457 651,-463 645,-469 639,-469"/>
<text text-anchor="start" x="526.5" y="-453.8" font-family="Helvetica,sans-Serif" font-size="14.00">Parch ≤ 0.5</text>
<text text-anchor="start" x="483" y="-438.8" font-family="Helvetica,sans-Serif" font-size="14.00">squared_error = 173.483</text>
<text text-anchor="start" x="515.5" y="-423.8" font-family="Helvetica,sans-Serif" font-size="14.00">samples = 528</text>
<text text-anchor="start" x="516" y="-408.8" font-family="Helvetica,sans-Serif" font-size="14.00">value = 26.693</text>
</g>
<!-- 0&#45;&gt;1 -->
<g id="edge1" class="edge"><title>0&#45;&gt;1</title>
<path fill="none" stroke="black" d="M658.897,-504.884C645.752,-495.442 631.304,-485.064 617.7,-475.292"/>
<polygon fill="black" stroke="black" points="619.522,-472.291 609.358,-469.299 615.438,-477.976 619.522,-472.291"/>
<text text-anchor="middle" x="613.402" y="-490.27" font-family="Helvetica,sans-Serif" font-size="14.00">True</text>
</g>
<!-- 2 -->
<g id="node13" class="node"><title>2</title>
<path fill="#ea975c" stroke="black" d="M924,-469C924,-469 772,-469 772,-469 766,-469 760,-463 760,-457 760,-457 760,-413 760,-413 760,-407 766,-401 772,-401 772,-401 924,-401 924,-401 930,-401 936,-407 936,-413 936,-413 936,-457 936,-457 936,-463 930,-469 924,-469"/>
<text text-anchor="start" x="811.5" y="-453.8" font-family="Helvetica,sans-Serif" font-size="14.00">Parch ≤ 1.5</text>
<text text-anchor="start" x="768" y="-438.8" font-family="Helvetica,sans-Serif" font-size="14.00">squared_error = 217.946</text>
<text text-anchor="start" x="800.5" y="-423.8" font-family="Helvetica,sans-Serif" font-size="14.00">samples = 186</text>
<text text-anchor="start" x="801" y="-408.8" font-family="Helvetica,sans-Serif" font-size="14.00">value = 38.233</text>
</g>
<!-- 0&#45;&gt;2 -->
<g id="edge12" class="edge"><title>0&#45;&gt;2</title>
<path fill="none" stroke="black" d="M751.428,-504.884C764.665,-495.442 779.215,-485.064 792.915,-475.292"/>
<polygon fill="black" stroke="black" points="795.207,-477.956 801.316,-469.299 791.142,-472.257 795.207,-477.956"/>
<text text-anchor="middle" x="797.189" y="-490.256" font-family="Helvetica,sans-Serif" font-size="14.00">False</text>
</g>
<!-- 3 -->
<g id="node3" class="node"><title>3</title>
<path fill="#efb286" stroke="black" d="M354,-365C354,-365 202,-365 202,-365 196,-365 190,-359 190,-353 190,-353 190,-309 190,-309 190,-303 196,-297 202,-297 202,-297 354,-297 354,-297 360,-297 366,-303 366,-309 366,-309 366,-353 366,-353 366,-359 360,-365 354,-365"/>
<text text-anchor="start" x="230.5" y="-349.8" font-family="Helvetica,sans-Serif" font-size="14.00">Pclass_2 ≤ 0.5</text>
<text text-anchor="start" x="198" y="-334.8" font-family="Helvetica,sans-Serif" font-size="14.00">squared_error = 122.819</text>
<text text-anchor="start" x="230.5" y="-319.8" font-family="Helvetica,sans-Serif" font-size="14.00">samples = 387</text>
<text text-anchor="start" x="231" y="-304.8" font-family="Helvetica,sans-Serif" font-size="14.00">value = 29.503</text>
</g>
<!-- 1&#45;&gt;3 -->
<g id="edge2" class="edge"><title>1&#45;&gt;3</title>
<path fill="none" stroke="black" d="M474.776,-402.425C443.516,-391.237 408.158,-378.583 376.124,-367.118"/>
<polygon fill="black" stroke="black" points="376.892,-363.676 366.298,-363.601 374.534,-370.266 376.892,-363.676"/>
</g>
<!-- 4 -->
<g id="node6" class="node"><title>4</title>
<path fill="#f6d3b9" stroke="black" d="M639,-365C639,-365 487,-365 487,-365 481,-365 475,-359 475,-353 475,-353 475,-309 475,-309 475,-303 481,-297 487,-297 487,-297 639,-297 639,-297 645,-297 651,-303 651,-309 651,-309 651,-353 651,-353 651,-359 645,-365 639,-365"/>
<text text-anchor="start" x="525.5" y="-349.8" font-family="Helvetica,sans-Serif" font-size="14.00">SibSp ≤ 1.5</text>
<text text-anchor="start" x="483" y="-334.8" font-family="Helvetica,sans-Serif" font-size="14.00">squared_error = 231.391</text>
<text text-anchor="start" x="515.5" y="-319.8" font-family="Helvetica,sans-Serif" font-size="14.00">samples = 141</text>
<text text-anchor="start" x="520" y="-304.8" font-family="Helvetica,sans-Serif" font-size="14.00">value = 18.98</text>
</g>
<!-- 1&#45;&gt;4 -->
<g id="edge5" class="edge"><title>1&#45;&gt;4</title>
<path fill="none" stroke="black" d="M563,-400.884C563,-392.778 563,-383.982 563,-375.472"/>
<polygon fill="black" stroke="black" points="566.5,-375.299 563,-365.299 559.5,-375.299 566.5,-375.299"/>
</g>
<!-- 13 -->
<g id="node4" class="node"><title>13</title>
<path fill="#f0b78e" stroke="black" d="M164,-253.5C164,-253.5 12,-253.5 12,-253.5 6,-253.5 0,-247.5 0,-241.5 0,-241.5 0,-212.5 0,-212.5 0,-206.5 6,-200.5 12,-200.5 12,-200.5 164,-200.5 164,-200.5 170,-200.5 176,-206.5 176,-212.5 176,-212.5 176,-241.5 176,-241.5 176,-247.5 170,-253.5 164,-253.5"/>
<text text-anchor="start" x="8" y="-238.3" font-family="Helvetica,sans-Serif" font-size="14.00">squared_error = 109.012</text>
<text text-anchor="start" x="40.5" y="-223.3" font-family="Helvetica,sans-Serif" font-size="14.00">samples = 264</text>
<text text-anchor="start" x="41" y="-208.3" font-family="Helvetica,sans-Serif" font-size="14.00">value = 27.835</text>
</g>
<!-- 3&#45;&gt;13 -->
<g id="edge3" class="edge"><title>3&#45;&gt;13</title>
<path fill="none" stroke="black" d="M216.312,-296.884C193.163,-284.456 166.992,-270.406 144.351,-258.252"/>
<polygon fill="black" stroke="black" points="146.003,-255.166 135.537,-253.52 142.692,-261.334 146.003,-255.166"/>
</g>
<!-- 14 -->
<g id="node5" class="node"><title>14</title>
<path fill="#eda775" stroke="black" d="M349.5,-253.5C349.5,-253.5 206.5,-253.5 206.5,-253.5 200.5,-253.5 194.5,-247.5 194.5,-241.5 194.5,-241.5 194.5,-212.5 194.5,-212.5 194.5,-206.5 200.5,-200.5 206.5,-200.5 206.5,-200.5 349.5,-200.5 349.5,-200.5 355.5,-200.5 361.5,-206.5 361.5,-212.5 361.5,-212.5 361.5,-241.5 361.5,-241.5 361.5,-247.5 355.5,-253.5 349.5,-253.5"/>
<text text-anchor="start" x="202.5" y="-238.3" font-family="Helvetica,sans-Serif" font-size="14.00">squared_error = 133.68</text>
<text text-anchor="start" x="230.5" y="-223.3" font-family="Helvetica,sans-Serif" font-size="14.00">samples = 123</text>
<text text-anchor="start" x="231" y="-208.3" font-family="Helvetica,sans-Serif" font-size="14.00">value = 33.081</text>
</g>
<!-- 3&#45;&gt;14 -->
<g id="edge4" class="edge"><title>3&#45;&gt;14</title>
<path fill="none" stroke="black" d="M278,-296.884C278,-286.326 278,-274.597 278,-263.854"/>
<polygon fill="black" stroke="black" points="281.5,-263.52 278,-253.52 274.5,-263.52 281.5,-263.52"/>
</g>
<!-- 5 -->
<g id="node7" class="node"><title>5</title>
<path fill="#f3c5a5" stroke="black" d="M544,-261C544,-261 392,-261 392,-261 386,-261 380,-255 380,-249 380,-249 380,-205 380,-205 380,-199 386,-193 392,-193 392,-193 544,-193 544,-193 550,-193 556,-199 556,-205 556,-205 556,-249 556,-249 556,-255 550,-261 544,-261"/>
<text text-anchor="start" x="414.5" y="-245.8" font-family="Helvetica,sans-Serif" font-size="14.00">Survived_1 ≤ 0.5</text>
<text text-anchor="start" x="388" y="-230.8" font-family="Helvetica,sans-Serif" font-size="14.00">squared_error = 241.277</text>
<text text-anchor="start" x="420.5" y="-215.8" font-family="Helvetica,sans-Serif" font-size="14.00">samples = 101</text>
<text text-anchor="start" x="421" y="-200.8" font-family="Helvetica,sans-Serif" font-size="14.00">value = 23.245</text>
</g>
<!-- 4&#45;&gt;5 -->
<g id="edge6" class="edge"><title>4&#45;&gt;5</title>
<path fill="none" stroke="black" d="M532.156,-296.884C523.777,-287.887 514.606,-278.041 505.887,-268.678"/>
<polygon fill="black" stroke="black" points="508.391,-266.232 499.014,-261.299 503.268,-271.003 508.391,-266.232"/>
</g>
<!-- 6 -->
<g id="node12" class="node"><title>6</title>
<path fill="#fdf4ed" stroke="black" d="M729.5,-253.5C729.5,-253.5 586.5,-253.5 586.5,-253.5 580.5,-253.5 574.5,-247.5 574.5,-241.5 574.5,-241.5 574.5,-212.5 574.5,-212.5 574.5,-206.5 580.5,-200.5 586.5,-200.5 586.5,-200.5 729.5,-200.5 729.5,-200.5 735.5,-200.5 741.5,-206.5 741.5,-212.5 741.5,-212.5 741.5,-241.5 741.5,-241.5 741.5,-247.5 735.5,-253.5 729.5,-253.5"/>
<text text-anchor="start" x="582.5" y="-238.3" font-family="Helvetica,sans-Serif" font-size="14.00">squared_error = 44.558</text>
<text text-anchor="start" x="614.5" y="-223.3" font-family="Helvetica,sans-Serif" font-size="14.00">samples = 40</text>
<text text-anchor="start" x="615" y="-208.3" font-family="Helvetica,sans-Serif" font-size="14.00">value = 8.212</text>
</g>
<!-- 4&#45;&gt;6 -->
<g id="edge11" class="edge"><title>4&#45;&gt;6</title>
<path fill="none" stroke="black" d="M593.844,-296.884C604.599,-285.336 616.659,-272.387 627.395,-260.86"/>
<polygon fill="black" stroke="black" points="629.977,-263.223 634.231,-253.52 624.855,-258.452 629.977,-263.223"/>
</g>
<!-- 9 -->
<g id="node8" class="node"><title>9</title>
<path fill="#eead7f" stroke="black" d="M447,-149.5C447,-149.5 295,-149.5 295,-149.5 289,-149.5 283,-143.5 283,-137.5 283,-137.5 283,-108.5 283,-108.5 283,-102.5 289,-96.5 295,-96.5 295,-96.5 447,-96.5 447,-96.5 453,-96.5 459,-102.5 459,-108.5 459,-108.5 459,-137.5 459,-137.5 459,-143.5 453,-149.5 447,-149.5"/>
<text text-anchor="start" x="291" y="-134.3" font-family="Helvetica,sans-Serif" font-size="14.00">squared_error = 145.812</text>
<text text-anchor="start" x="327.5" y="-119.3" font-family="Helvetica,sans-Serif" font-size="14.00">samples = 43</text>
<text text-anchor="start" x="324" y="-104.3" font-family="Helvetica,sans-Serif" font-size="14.00">value = 31.116</text>
</g>
<!-- 5&#45;&gt;9 -->
<g id="edge7" class="edge"><title>5&#45;&gt;9</title>
<path fill="none" stroke="black" d="M436.507,-192.884C425.525,-181.336 413.212,-168.387 402.25,-156.86"/>
<polygon fill="black" stroke="black" points="404.696,-154.354 395.269,-149.52 399.624,-159.178 404.696,-154.354"/>
</g>
<!-- 10 -->
<g id="node9" class="node"><title>10</title>
<path fill="#f7d7c1" stroke="black" d="M641,-157C641,-157 489,-157 489,-157 483,-157 477,-151 477,-145 477,-145 477,-101 477,-101 477,-95 483,-89 489,-89 489,-89 641,-89 641,-89 647,-89 653,-95 653,-101 653,-101 653,-145 653,-145 653,-151 647,-157 641,-157"/>
<text text-anchor="start" x="515" y="-141.8" font-family="Helvetica,sans-Serif" font-size="14.00">Sex_male ≤ 0.5</text>
<text text-anchor="start" x="485" y="-126.8" font-family="Helvetica,sans-Serif" font-size="14.00">squared_error = 232.065</text>
<text text-anchor="start" x="521.5" y="-111.8" font-family="Helvetica,sans-Serif" font-size="14.00">samples = 58</text>
<text text-anchor="start" x="518" y="-96.8" font-family="Helvetica,sans-Serif" font-size="14.00">value = 17.409</text>
</g>
<!-- 5&#45;&gt;10 -->
<g id="edge8" class="edge"><title>5&#45;&gt;10</title>
<path fill="none" stroke="black" d="M499.493,-192.884C508.049,-183.887 517.412,-174.041 526.316,-164.678"/>
<polygon fill="black" stroke="black" points="528.978,-166.958 533.333,-157.299 523.905,-162.134 528.978,-166.958"/>
</g>
<!-- 11 -->
<g id="node10" class="node"><title>11</title>
<path fill="#f4c8a9" stroke="black" d="M543.5,-53C543.5,-53 400.5,-53 400.5,-53 394.5,-53 388.5,-47 388.5,-41 388.5,-41 388.5,-12 388.5,-12 388.5,-6 394.5,-0 400.5,-0 400.5,-0 543.5,-0 543.5,-0 549.5,-0 555.5,-6 555.5,-12 555.5,-12 555.5,-41 555.5,-41 555.5,-47 549.5,-53 543.5,-53"/>
<text text-anchor="start" x="396.5" y="-37.8" font-family="Helvetica,sans-Serif" font-size="14.00">squared_error = 223.27</text>
<text text-anchor="start" x="428.5" y="-22.8" font-family="Helvetica,sans-Serif" font-size="14.00">samples = 42</text>
<text text-anchor="start" x="425" y="-7.8" font-family="Helvetica,sans-Serif" font-size="14.00">value = 22.333</text>
</g>
<!-- 10&#45;&gt;11 -->
<g id="edge9" class="edge"><title>10&#45;&gt;11</title>
<path fill="none" stroke="black" d="M532.473,-88.9485C523.38,-79.709 513.502,-69.671 504.415,-60.4381"/>
<polygon fill="black" stroke="black" points="506.837,-57.9091 497.328,-53.2367 501.848,-62.8191 506.837,-57.9091"/>
</g>
<!-- 12 -->
<g id="node11" class="node"><title>12</title>
<path fill="#ffffff" stroke="black" d="M728.5,-53C728.5,-53 585.5,-53 585.5,-53 579.5,-53 573.5,-47 573.5,-41 573.5,-41 573.5,-12 573.5,-12 573.5,-6 579.5,-0 585.5,-0 585.5,-0 728.5,-0 728.5,-0 734.5,-0 740.5,-6 740.5,-12 740.5,-12 740.5,-41 740.5,-41 740.5,-47 734.5,-53 728.5,-53"/>
<text text-anchor="start" x="581.5" y="-37.8" font-family="Helvetica,sans-Serif" font-size="14.00">squared_error = 24.453</text>
<text text-anchor="start" x="613.5" y="-22.8" font-family="Helvetica,sans-Serif" font-size="14.00">samples = 16</text>
<text text-anchor="start" x="614" y="-7.8" font-family="Helvetica,sans-Serif" font-size="14.00">value = 4.484</text>
</g>
<!-- 10&#45;&gt;12 -->
<g id="edge10" class="edge"><title>10&#45;&gt;12</title>
<path fill="none" stroke="black" d="M597.177,-88.9485C606.172,-79.709 615.945,-69.671 624.933,-60.4381"/>
<polygon fill="black" stroke="black" points="627.476,-62.8434 631.944,-53.2367 622.461,-57.9605 627.476,-62.8434"/>
</g>
<!-- 7 -->
<g id="node14" class="node"><title>7</title>
<path fill="#e89253" stroke="black" d="M924,-365C924,-365 772,-365 772,-365 766,-365 760,-359 760,-353 760,-353 760,-309 760,-309 760,-303 766,-297 772,-297 772,-297 924,-297 924,-297 930,-297 936,-303 936,-309 936,-309 936,-353 936,-353 936,-359 930,-365 924,-365"/>
<text text-anchor="start" x="807" y="-349.8" font-family="Helvetica,sans-Serif" font-size="14.00">Fare ≤ 38.95</text>
<text text-anchor="start" x="768" y="-334.8" font-family="Helvetica,sans-Serif" font-size="14.00">squared_error = 184.746</text>
<text text-anchor="start" x="800.5" y="-319.8" font-family="Helvetica,sans-Serif" font-size="14.00">samples = 164</text>
<text text-anchor="start" x="801" y="-304.8" font-family="Helvetica,sans-Serif" font-size="14.00">value = 40.155</text>
</g>
<!-- 2&#45;&gt;7 -->
<g id="edge13" class="edge"><title>2&#45;&gt;7</title>
<path fill="none" stroke="black" d="M848,-400.884C848,-392.778 848,-383.982 848,-375.472"/>
<polygon fill="black" stroke="black" points="851.5,-375.299 848,-365.299 844.5,-375.299 851.5,-375.299"/>
</g>
<!-- 8 -->
<g id="node17" class="node"><title>8</title>
<path fill="#f3c3a1" stroke="black" d="M1118,-357.5C1118,-357.5 966,-357.5 966,-357.5 960,-357.5 954,-351.5 954,-345.5 954,-345.5 954,-316.5 954,-316.5 954,-310.5 960,-304.5 966,-304.5 966,-304.5 1118,-304.5 1118,-304.5 1124,-304.5 1130,-310.5 1130,-316.5 1130,-316.5 1130,-345.5 1130,-345.5 1130,-351.5 1124,-357.5 1118,-357.5"/>
<text text-anchor="start" x="962" y="-342.3" font-family="Helvetica,sans-Serif" font-size="14.00">squared_error = 232.613</text>
<text text-anchor="start" x="998.5" y="-327.3" font-family="Helvetica,sans-Serif" font-size="14.00">samples = 22</text>
<text text-anchor="start" x="995" y="-312.3" font-family="Helvetica,sans-Serif" font-size="14.00">value = 23.905</text>
</g>
<!-- 2&#45;&gt;8 -->
<g id="edge16" class="edge"><title>2&#45;&gt;8</title>
<path fill="none" stroke="black" d="M910.986,-400.884C934.623,-388.456 961.345,-374.406 984.462,-362.252"/>
<polygon fill="black" stroke="black" points="986.24,-365.272 993.462,-357.52 982.982,-359.076 986.24,-365.272"/>
</g>
<!-- 15 -->
<g id="node15" class="node"><title>15</title>
<path fill="#e58139" stroke="black" d="M924,-253.5C924,-253.5 772,-253.5 772,-253.5 766,-253.5 760,-247.5 760,-241.5 760,-241.5 760,-212.5 760,-212.5 760,-206.5 766,-200.5 772,-200.5 772,-200.5 924,-200.5 924,-200.5 930,-200.5 936,-206.5 936,-212.5 936,-212.5 936,-241.5 936,-241.5 936,-247.5 930,-253.5 924,-253.5"/>
<text text-anchor="start" x="768" y="-238.3" font-family="Helvetica,sans-Serif" font-size="14.00">squared_error = 168.518</text>
<text text-anchor="start" x="804.5" y="-223.3" font-family="Helvetica,sans-Serif" font-size="14.00">samples = 51</text>
<text text-anchor="start" x="801" y="-208.3" font-family="Helvetica,sans-Serif" font-size="14.00">value = 45.539</text>
</g>
<!-- 7&#45;&gt;15 -->
<g id="edge14" class="edge"><title>7&#45;&gt;15</title>
<path fill="none" stroke="black" d="M848,-296.884C848,-286.326 848,-274.597 848,-263.854"/>
<polygon fill="black" stroke="black" points="851.5,-263.52 848,-253.52 844.5,-263.52 851.5,-263.52"/>
</g>
<!-- 16 -->
<g id="node16" class="node"><title>16</title>
<path fill="#ea995f" stroke="black" d="M1118,-253.5C1118,-253.5 966,-253.5 966,-253.5 960,-253.5 954,-247.5 954,-241.5 954,-241.5 954,-212.5 954,-212.5 954,-206.5 960,-200.5 966,-200.5 966,-200.5 1118,-200.5 1118,-200.5 1124,-200.5 1130,-206.5 1130,-212.5 1130,-212.5 1130,-241.5 1130,-241.5 1130,-247.5 1124,-253.5 1118,-253.5"/>
<text text-anchor="start" x="962" y="-238.3" font-family="Helvetica,sans-Serif" font-size="14.00">squared_error = 173.084</text>
<text text-anchor="start" x="994.5" y="-223.3" font-family="Helvetica,sans-Serif" font-size="14.00">samples = 113</text>
<text text-anchor="start" x="995" y="-208.3" font-family="Helvetica,sans-Serif" font-size="14.00">value = 37.726</text>
</g>
<!-- 7&#45;&gt;16 -->
<g id="edge15" class="edge"><title>7&#45;&gt;16</title>
<path fill="none" stroke="black" d="M910.986,-296.884C934.623,-284.456 961.345,-270.406 984.462,-258.252"/>
<polygon fill="black" stroke="black" points="986.24,-261.272 993.462,-253.52 982.982,-255.076 986.24,-261.272"/>
</g>
</g>
</svg>
