<?xml version="1.0" encoding="UTF-8" standalone="no"?>
<!DOCTYPE svg PUBLIC "-//W3C//DTD SVG 1.1//EN"
 "http://www.w3.org/Graphics/SVG/1.1/DTD/svg11.dtd">
<!-- Generated by graphviz version 2.50.0 (0)
 -->
<!-- Title: Tree Pages: 1 -->
<svg width="450pt" height="477pt"
 viewBox="0.00 0.00 450.00 477.00" xmlns="http://www.w3.org/2000/svg" xmlns:xlink="http://www.w3.org/1999/xlink">
<g id="graph0" class="graph" transform="scale(1 1) rotate(0) translate(4 473)">
<title>Tree</title>
<polygon fill="white" stroke="transparent" points="-4,4 -4,-473 446,-473 446,4 -4,4"/>
<!-- 0 -->
<g id="node1" class="node">
<title>0</title>
<path fill="#eda673" stroke="black" d="M338,-469C338,-469 196,-469 196,-469 190,-469 184,-463 184,-457 184,-457 184,-413 184,-413 184,-407 190,-401 196,-401 196,-401 338,-401 338,-401 344,-401 350,-407 350,-413 350,-413 350,-457 350,-457 350,-463 344,-469 338,-469"/>
<text text-anchor="start" x="222.5" y="-453.8" font-family="Helvetica,sans-Serif" font-size="14.00">Pclass_1 ≤ 0.5</text>
<text text-anchor="start" x="192" y="-438.8" font-family="Helvetica,sans-Serif" font-size="14.00">squared_error = 219.718</text>
<text text-anchor="start" x="222" y="-423.8" font-family="Helvetica,sans-Serif" font-size="14.00">samples = 606</text>
<text text-anchor="start" x="222" y="-408.8" font-family="Helvetica,sans-Serif" font-size="14.00">value = 29.964</text>
</g>
<!-- 1 -->
<g id="node2" class="node">
<title>1</title>
<path fill="#efb387" stroke="black" d="M246,-365C246,-365 104,-365 104,-365 98,-365 92,-359 92,-353 92,-353 92,-309 92,-309 92,-303 98,-297 104,-297 104,-297 246,-297 246,-297 252,-297 258,-303 258,-309 258,-309 258,-353 258,-353 258,-359 252,-365 246,-365"/>
<text text-anchor="start" x="140" y="-349.8" font-family="Helvetica,sans-Serif" font-size="14.00">Parch ≤ 0.5</text>
<text text-anchor="start" x="100" y="-334.8" font-family="Helvetica,sans-Serif" font-size="14.00">squared_error = 184.486</text>
<text text-anchor="start" x="130" y="-319.8" font-family="Helvetica,sans-Serif" font-size="14.00">samples = 453</text>
<text text-anchor="start" x="130" y="-304.8" font-family="Helvetica,sans-Serif" font-size="14.00">value = 26.887</text>
</g>
<!-- 0&#45;&gt;1 -->
<g id="edge1" class="edge">
<title>0&#45;&gt;1</title>
<path fill="none" stroke="black" d="M237.13,-400.88C229.1,-391.98 220.31,-382.24 211.94,-372.96"/>
<polygon fill="black" stroke="black" points="214.33,-370.38 205.03,-365.3 209.13,-375.07 214.33,-370.38"/>
<text text-anchor="middle" x="203.75" y="-386.57" font-family="Helvetica,sans-Serif" font-size="14.00">True</text>
</g>
<!-- 2 -->
<g id="node9" class="node">
<title>2</title>
<path fill="#e58139" stroke="black" d="M430,-357.5C430,-357.5 288,-357.5 288,-357.5 282,-357.5 276,-351.5 276,-345.5 276,-345.5 276,-316.5 276,-316.5 276,-310.5 282,-304.5 288,-304.5 288,-304.5 430,-304.5 430,-304.5 436,-304.5 442,-310.5 442,-316.5 442,-316.5 442,-345.5 442,-345.5 442,-351.5 436,-357.5 430,-357.5"/>
<text text-anchor="start" x="284" y="-342.3" font-family="Helvetica,sans-Serif" font-size="14.00">squared_error = 212.983</text>
<text text-anchor="start" x="314" y="-327.3" font-family="Helvetica,sans-Serif" font-size="14.00">samples = 153</text>
<text text-anchor="start" x="314" y="-312.3" font-family="Helvetica,sans-Serif" font-size="14.00">value = 39.075</text>
</g>
<!-- 0&#45;&gt;2 -->
<g id="edge8" class="edge">
<title>0&#45;&gt;2</title>
<path fill="none" stroke="black" d="M296.87,-400.88C307.19,-389.45 318.74,-376.63 329.06,-365.19"/>
<polygon fill="black" stroke="black" points="331.88,-367.29 335.98,-357.52 326.69,-362.6 331.88,-367.29"/>
<text text-anchor="middle" x="337.27" y="-378.79" font-family="Helvetica,sans-Serif" font-size="14.00">False</text>
</g>
<!-- 3 -->
<g id="node3" class="node">
<title>3</title>
<path fill="#eda673" stroke="black" d="M154,-253.5C154,-253.5 12,-253.5 12,-253.5 6,-253.5 0,-247.5 0,-241.5 0,-241.5 0,-212.5 0,-212.5 0,-206.5 6,-200.5 12,-200.5 12,-200.5 154,-200.5 154,-200.5 160,-200.5 166,-206.5 166,-212.5 166,-212.5 166,-241.5 166,-241.5 166,-247.5 160,-253.5 154,-253.5"/>
<text text-anchor="start" x="8" y="-238.3" font-family="Helvetica,sans-Serif" font-size="14.00">squared_error = 129.972</text>
<text text-anchor="start" x="38" y="-223.3" font-family="Helvetica,sans-Serif" font-size="14.00">samples = 333</text>
<text text-anchor="start" x="38" y="-208.3" font-family="Helvetica,sans-Serif" font-size="14.00">value = 29.974</text>
</g>
<!-- 1&#45;&gt;3 -->
<g id="edge2" class="edge">
<title>1&#45;&gt;3</title>
<path fill="none" stroke="black" d="M145.13,-296.88C134.81,-285.45 123.26,-272.63 112.94,-261.19"/>
<polygon fill="black" stroke="black" points="115.31,-258.6 106.02,-253.52 110.12,-263.29 115.31,-258.6"/>
</g>
<!-- 4 -->
<g id="node4" class="node">
<title>4</title>
<path fill="#f6d5be" stroke="black" d="M338,-261C338,-261 196,-261 196,-261 190,-261 184,-255 184,-249 184,-249 184,-205 184,-205 184,-199 190,-193 196,-193 196,-193 338,-193 338,-193 344,-193 350,-199 350,-205 350,-205 350,-249 350,-249 350,-255 344,-261 338,-261"/>
<text text-anchor="start" x="232" y="-245.8" font-family="Helvetica,sans-Serif" font-size="14.00">SibSp ≤ 1.5</text>
<text text-anchor="start" x="192" y="-230.8" font-family="Helvetica,sans-Serif" font-size="14.00">squared_error = 235.895</text>
<text text-anchor="start" x="222" y="-215.8" font-family="Helvetica,sans-Serif" font-size="14.00">samples = 120</text>
<text text-anchor="start" x="222" y="-200.8" font-family="Helvetica,sans-Serif" font-size="14.00">value = 18.319</text>
</g>
<!-- 1&#45;&gt;4 -->
<g id="edge3" class="edge">
<title>1&#45;&gt;4</title>
<path fill="none" stroke="black" d="M204.87,-296.88C212.9,-287.98 221.69,-278.24 230.06,-268.96"/>
<polygon fill="black" stroke="black" points="232.87,-271.07 236.97,-261.3 227.67,-266.38 232.87,-271.07"/>
</g>
<!-- 5 -->
<g id="node5" class="node">
<title>5</title>
<path fill="#f2c29f" stroke="black" d="M248,-157C248,-157 106,-157 106,-157 100,-157 94,-151 94,-145 94,-145 94,-101 94,-101 94,-95 100,-89 106,-89 106,-89 248,-89 248,-89 254,-89 260,-95 260,-101 260,-101 260,-145 260,-145 260,-151 254,-157 248,-157"/>
<text text-anchor="start" x="126" y="-141.8" font-family="Helvetica,sans-Serif" font-size="14.00">Survived_1 ≤ 0.5</text>
<text text-anchor="start" x="102" y="-126.8" font-family="Helvetica,sans-Serif" font-size="14.00">squared_error = 252.995</text>
<text text-anchor="start" x="136" y="-111.8" font-family="Helvetica,sans-Serif" font-size="14.00">samples = 82</text>
<text text-anchor="start" x="136" y="-96.8" font-family="Helvetica,sans-Serif" font-size="14.00">value = 23.07</text>
</g>
<!-- 4&#45;&gt;5 -->
<g id="edge4" class="edge">
<title>4&#45;&gt;5</title>
<path fill="none" stroke="black" d="M237.78,-192.88C229.92,-183.98 221.33,-174.24 213.14,-164.96"/>
<polygon fill="black" stroke="black" points="215.62,-162.48 206.38,-157.3 210.37,-167.11 215.62,-162.48"/>
</g>
<!-- 6 -->
<g id="node8" class="node">
<title>6</title>
<path fill="#ffffff" stroke="black" d="M424,-149.5C424,-149.5 290,-149.5 290,-149.5 284,-149.5 278,-143.5 278,-137.5 278,-137.5 278,-108.5 278,-108.5 278,-102.5 284,-96.5 290,-96.5 290,-96.5 424,-96.5 424,-96.5 430,-96.5 436,-102.5 436,-108.5 436,-108.5 436,-137.5 436,-137.5 436,-143.5 430,-149.5 424,-149.5"/>
<text text-anchor="start" x="286" y="-134.3" font-family="Helvetica,sans-Serif" font-size="14.00">squared_error = 45.157</text>
<text text-anchor="start" x="316" y="-119.3" font-family="Helvetica,sans-Serif" font-size="14.00">samples = 38</text>
<text text-anchor="start" x="316" y="-104.3" font-family="Helvetica,sans-Serif" font-size="14.00">value = 8.066</text>
</g>
<!-- 4&#45;&gt;6 -->
<g id="edge7" class="edge">
<title>4&#45;&gt;6</title>
<path fill="none" stroke="black" d="M296.22,-192.88C306.31,-181.45 317.62,-168.63 327.71,-157.19"/>
<polygon fill="black" stroke="black" points="330.49,-159.33 334.48,-149.52 325.24,-154.7 330.49,-159.33"/>
</g>
<!-- 7 -->
<g id="node6" class="node">
<title>7</title>
<path fill="#eca36e" stroke="black" d="M156,-53C156,-53 14,-53 14,-53 8,-53 2,-47 2,-41 2,-41 2,-12 2,-12 2,-6 8,0 14,0 14,0 156,0 156,0 162,0 168,-6 168,-12 168,-12 168,-41 168,-41 168,-47 162,-53 156,-53"/>
<text text-anchor="start" x="10" y="-37.8" font-family="Helvetica,sans-Serif" font-size="14.00">squared_error = 159.252</text>
<text text-anchor="start" x="44" y="-22.8" font-family="Helvetica,sans-Serif" font-size="14.00">samples = 34</text>
<text text-anchor="start" x="40" y="-7.8" font-family="Helvetica,sans-Serif" font-size="14.00">value = 30.706</text>
</g>
<!-- 5&#45;&gt;7 -->
<g id="edge5" class="edge">
<title>5&#45;&gt;7</title>
<path fill="none" stroke="black" d="M144.82,-88.95C135.83,-79.71 126.06,-69.67 117.07,-60.44"/>
<polygon fill="black" stroke="black" points="119.54,-57.96 110.06,-53.24 114.52,-62.84 119.54,-57.96"/>
</g>
<!-- 8 -->
<g id="node7" class="node">
<title>8</title>
<path fill="#f7d8c2" stroke="black" d="M340,-53C340,-53 198,-53 198,-53 192,-53 186,-47 186,-41 186,-41 186,-12 186,-12 186,-6 192,0 198,0 198,0 340,0 340,0 346,0 352,-6 352,-12 352,-12 352,-41 352,-41 352,-47 346,-53 340,-53"/>
<text text-anchor="start" x="194" y="-37.8" font-family="Helvetica,sans-Serif" font-size="14.00">squared_error = 248.844</text>
<text text-anchor="start" x="228" y="-22.8" font-family="Helvetica,sans-Serif" font-size="14.00">samples = 48</text>
<text text-anchor="start" x="224" y="-7.8" font-family="Helvetica,sans-Serif" font-size="14.00">value = 17.661</text>
</g>
<!-- 5&#45;&gt;8 -->
<g id="edge6" class="edge">
<title>5&#45;&gt;8</title>
<path fill="none" stroke="black" d="M209.18,-88.95C218.17,-79.71 227.94,-69.67 236.93,-60.44"/>
<polygon fill="black" stroke="black" points="239.48,-62.84 243.94,-53.24 234.46,-57.96 239.48,-62.84"/>
</g>
</g>
</svg>
