<?xml version="1.0" encoding="UTF-8" standalone="no"?>
<!DOCTYPE svg PUBLIC "-//W3C//DTD SVG 1.1//EN"
 "http://www.w3.org/Graphics/SVG/1.1/DTD/svg11.dtd">
<!-- Generated by graphviz version 2.50.0 (0)
 -->
<!-- Title: Tree Pages: 1 -->
<svg width="890pt" height="552pt"
 viewBox="0.00 0.00 890.00 552.00" xmlns="http://www.w3.org/2000/svg" xmlns:xlink="http://www.w3.org/1999/xlink">
<g id="graph0" class="graph" transform="scale(1 1) rotate(0) translate(4 548)">
<title>Tree</title>
<polygon fill="white" stroke="transparent" points="-4,4 -4,-548 886,-548 886,4 -4,4"/>
<!-- 0 -->
<g id="node1" class="node">
<title>0</title>
<path fill="#f5cfb4" stroke="black" d="M499,-544C499,-544 383,-544 383,-544 377,-544 371,-538 371,-532 371,-532 371,-473 371,-473 371,-467 377,-461 383,-461 383,-461 499,-461 499,-461 505,-461 511,-467 511,-473 511,-473 511,-532 511,-532 511,-538 505,-544 499,-544"/>
<text text-anchor="start" x="388" y="-528.8" font-family="Helvetica,sans-Serif" font-size="14.00">Sex_female ≤ 0.5</text>
<text text-anchor="start" x="405.5" y="-513.8" font-family="Helvetica,sans-Serif" font-size="14.00">gini = 0.473</text>
<text text-anchor="start" x="396" y="-498.8" font-family="Helvetica,sans-Serif" font-size="14.00">samples = 891</text>
<text text-anchor="start" x="386.5" y="-483.8" font-family="Helvetica,sans-Serif" font-size="14.00">value = [549, 342]</text>
<text text-anchor="start" x="379" y="-468.8" font-family="Helvetica,sans-Serif" font-size="14.00">class = Not Survived</text>
</g>
<!-- 1 -->
<g id="node2" class="node">
<title>1</title>
<path fill="#eb9e67" stroke="black" d="M420,-425C420,-425 304,-425 304,-425 298,-425 292,-419 292,-413 292,-413 292,-354 292,-354 292,-348 298,-342 304,-342 304,-342 420,-342 420,-342 426,-342 432,-348 432,-354 432,-354 432,-413 432,-413 432,-419 426,-425 420,-425"/>
<text text-anchor="start" x="333" y="-409.8" font-family="Helvetica,sans-Serif" font-size="14.00">Age ≤ 6.5</text>
<text text-anchor="start" x="326.5" y="-394.8" font-family="Helvetica,sans-Serif" font-size="14.00">gini = 0.306</text>
<text text-anchor="start" x="317" y="-379.8" font-family="Helvetica,sans-Serif" font-size="14.00">samples = 577</text>
<text text-anchor="start" x="307.5" y="-364.8" font-family="Helvetica,sans-Serif" font-size="14.00">value = [468, 109]</text>
<text text-anchor="start" x="300" y="-349.8" font-family="Helvetica,sans-Serif" font-size="14.00">class = Not Survived</text>
</g>
<!-- 0&#45;&gt;1 -->
<g id="edge1" class="edge">
<title>0&#45;&gt;1</title>
<path fill="none" stroke="black" d="M413.59,-460.91C407.59,-452.01 401.17,-442.51 394.97,-433.33"/>
<polygon fill="black" stroke="black" points="397.86,-431.35 389.36,-425.02 392.06,-435.27 397.86,-431.35"/>
<text text-anchor="middle" x="384.6" y="-445.86" font-family="Helvetica,sans-Serif" font-size="14.00">True</text>
</g>
<!-- 2 -->
<g id="node11" class="node">
<title>2</title>
<path fill="#7ebfee" stroke="black" d="M578,-425C578,-425 462,-425 462,-425 456,-425 450,-419 450,-413 450,-413 450,-354 450,-354 450,-348 456,-342 462,-342 462,-342 578,-342 578,-342 584,-342 590,-348 590,-354 590,-354 590,-413 590,-413 590,-419 584,-425 578,-425"/>
<text text-anchor="start" x="475.5" y="-409.8" font-family="Helvetica,sans-Serif" font-size="14.00">Pclass_3 ≤ 0.5</text>
<text text-anchor="start" x="484.5" y="-394.8" font-family="Helvetica,sans-Serif" font-size="14.00">gini = 0.383</text>
<text text-anchor="start" x="475" y="-379.8" font-family="Helvetica,sans-Serif" font-size="14.00">samples = 314</text>
<text text-anchor="start" x="458" y="-364.8" font-family="Helvetica,sans-Serif" font-size="14.00">value = [81.0, 233.0]</text>
<text text-anchor="start" x="470" y="-349.8" font-family="Helvetica,sans-Serif" font-size="14.00">class = Survived</text>
</g>
<!-- 0&#45;&gt;2 -->
<g id="edge10" class="edge">
<title>0&#45;&gt;2</title>
<path fill="none" stroke="black" d="M468.41,-460.91C474.41,-452.01 480.83,-442.51 487.03,-433.33"/>
<polygon fill="black" stroke="black" points="489.94,-435.27 492.64,-425.02 484.14,-431.35 489.94,-435.27"/>
<text text-anchor="middle" x="497.4" y="-445.86" font-family="Helvetica,sans-Serif" font-size="14.00">False</text>
</g>
<!-- 5 -->
<g id="node3" class="node">
<title>5</title>
<path fill="#9ccef2" stroke="black" d="M250,-306C250,-306 158,-306 158,-306 152,-306 146,-300 146,-294 146,-294 146,-235 146,-235 146,-229 152,-223 158,-223 158,-223 250,-223 250,-223 256,-223 262,-229 262,-235 262,-235 262,-294 262,-294 262,-300 256,-306 250,-306"/>
<text text-anchor="start" x="169" y="-290.8" font-family="Helvetica,sans-Serif" font-size="14.00">SibSp ≤ 2.5</text>
<text text-anchor="start" x="168.5" y="-275.8" font-family="Helvetica,sans-Serif" font-size="14.00">gini = 0.444</text>
<text text-anchor="start" x="163" y="-260.8" font-family="Helvetica,sans-Serif" font-size="14.00">samples = 24</text>
<text text-anchor="start" x="161" y="-245.8" font-family="Helvetica,sans-Serif" font-size="14.00">value = [8, 16]</text>
<text text-anchor="start" x="154" y="-230.8" font-family="Helvetica,sans-Serif" font-size="14.00">class = Survived</text>
</g>
<!-- 1&#45;&gt;5 -->
<g id="edge2" class="edge">
<title>1&#45;&gt;5</title>
<path fill="none" stroke="black" d="M307.18,-341.91C294.19,-332.29 280.24,-321.95 266.92,-312.09"/>
<polygon fill="black" stroke="black" points="268.84,-309.16 258.72,-306.02 264.67,-314.78 268.84,-309.16"/>
</g>
<!-- 6 -->
<g id="node6" class="node">
<title>6</title>
<path fill="#ea9a61" stroke="black" d="M420,-306C420,-306 304,-306 304,-306 298,-306 292,-300 292,-294 292,-294 292,-235 292,-235 292,-229 298,-223 304,-223 304,-223 420,-223 420,-223 426,-223 432,-229 432,-235 432,-235 432,-294 432,-294 432,-300 426,-306 420,-306"/>
<text text-anchor="start" x="317.5" y="-290.8" font-family="Helvetica,sans-Serif" font-size="14.00">Pclass_1 ≤ 0.5</text>
<text text-anchor="start" x="330" y="-275.8" font-family="Helvetica,sans-Serif" font-size="14.00">gini = 0.28</text>
<text text-anchor="start" x="317" y="-260.8" font-family="Helvetica,sans-Serif" font-size="14.00">samples = 553</text>
<text text-anchor="start" x="311.5" y="-245.8" font-family="Helvetica,sans-Serif" font-size="14.00">value = [460, 93]</text>
<text text-anchor="start" x="300" y="-230.8" font-family="Helvetica,sans-Serif" font-size="14.00">class = Not Survived</text>
</g>
<!-- 1&#45;&gt;6 -->
<g id="edge5" class="edge">
<title>1&#45;&gt;6</title>
<path fill="none" stroke="black" d="M362,-341.91C362,-333.65 362,-324.86 362,-316.3"/>
<polygon fill="black" stroke="black" points="365.5,-316.02 362,-306.02 358.5,-316.02 365.5,-316.02"/>
</g>
<!-- 11 -->
<g id="node4" class="node">
<title>11</title>
<path fill="#399de5" stroke="black" d="M104,-179.5C104,-179.5 12,-179.5 12,-179.5 6,-179.5 0,-173.5 0,-167.5 0,-167.5 0,-123.5 0,-123.5 0,-117.5 6,-111.5 12,-111.5 12,-111.5 104,-111.5 104,-111.5 110,-111.5 116,-117.5 116,-123.5 116,-123.5 116,-167.5 116,-167.5 116,-173.5 110,-179.5 104,-179.5"/>
<text text-anchor="start" x="30" y="-164.3" font-family="Helvetica,sans-Serif" font-size="14.00">gini = 0.0</text>
<text text-anchor="start" x="17" y="-149.3" font-family="Helvetica,sans-Serif" font-size="14.00">samples = 15</text>
<text text-anchor="start" x="15" y="-134.3" font-family="Helvetica,sans-Serif" font-size="14.00">value = [0, 15]</text>
<text text-anchor="start" x="8" y="-119.3" font-family="Helvetica,sans-Serif" font-size="14.00">class = Survived</text>
</g>
<!-- 5&#45;&gt;11 -->
<g id="edge3" class="edge">
<title>5&#45;&gt;11</title>
<path fill="none" stroke="black" d="M153.35,-222.91C138.47,-210.99 122.23,-197.98 107.44,-186.12"/>
<polygon fill="black" stroke="black" points="109.38,-183.19 99.39,-179.67 105,-188.65 109.38,-183.19"/>
</g>
<!-- 12 -->
<g id="node5" class="node">
<title>12</title>
<path fill="#e89152" stroke="black" d="M262,-179.5C262,-179.5 146,-179.5 146,-179.5 140,-179.5 134,-173.5 134,-167.5 134,-167.5 134,-123.5 134,-123.5 134,-117.5 140,-111.5 146,-111.5 146,-111.5 262,-111.5 262,-111.5 268,-111.5 274,-117.5 274,-123.5 274,-123.5 274,-167.5 274,-167.5 274,-173.5 268,-179.5 262,-179.5"/>
<text text-anchor="start" x="168.5" y="-164.3" font-family="Helvetica,sans-Serif" font-size="14.00">gini = 0.198</text>
<text text-anchor="start" x="166.5" y="-149.3" font-family="Helvetica,sans-Serif" font-size="14.00">samples = 9</text>
<text text-anchor="start" x="164.5" y="-134.3" font-family="Helvetica,sans-Serif" font-size="14.00">value = [8, 1]</text>
<text text-anchor="start" x="142" y="-119.3" font-family="Helvetica,sans-Serif" font-size="14.00">class = Not Survived</text>
</g>
<!-- 5&#45;&gt;12 -->
<g id="edge4" class="edge">
<title>5&#45;&gt;12</title>
<path fill="none" stroke="black" d="M204,-222.91C204,-212.2 204,-200.62 204,-189.78"/>
<polygon fill="black" stroke="black" points="207.5,-189.67 204,-179.67 200.5,-189.67 207.5,-189.67"/>
</g>
<!-- 7 -->
<g id="node7" class="node">
<title>7</title>
<path fill="#e89153" stroke="black" d="M420,-179.5C420,-179.5 304,-179.5 304,-179.5 298,-179.5 292,-173.5 292,-167.5 292,-167.5 292,-123.5 292,-123.5 292,-117.5 298,-111.5 304,-111.5 304,-111.5 420,-111.5 420,-111.5 426,-111.5 432,-117.5 432,-123.5 432,-123.5 432,-167.5 432,-167.5 432,-173.5 426,-179.5 420,-179.5"/>
<text text-anchor="start" x="326.5" y="-164.3" font-family="Helvetica,sans-Serif" font-size="14.00">gini = 0.204</text>
<text text-anchor="start" x="317" y="-149.3" font-family="Helvetica,sans-Serif" font-size="14.00">samples = 433</text>
<text text-anchor="start" x="311.5" y="-134.3" font-family="Helvetica,sans-Serif" font-size="14.00">value = [383, 50]</text>
<text text-anchor="start" x="300" y="-119.3" font-family="Helvetica,sans-Serif" font-size="14.00">class = Not Survived</text>
</g>
<!-- 6&#45;&gt;7 -->
<g id="edge6" class="edge">
<title>6&#45;&gt;7</title>
<path fill="none" stroke="black" d="M362,-222.91C362,-212.2 362,-200.62 362,-189.78"/>
<polygon fill="black" stroke="black" points="365.5,-189.67 362,-179.67 358.5,-189.67 365.5,-189.67"/>
</g>
<!-- 8 -->
<g id="node8" class="node">
<title>8</title>
<path fill="#f4c7a8" stroke="black" d="M578,-187C578,-187 462,-187 462,-187 456,-187 450,-181 450,-175 450,-175 450,-116 450,-116 450,-110 456,-104 462,-104 462,-104 578,-104 578,-104 584,-104 590,-110 590,-116 590,-116 590,-175 590,-175 590,-181 584,-187 578,-187"/>
<text text-anchor="start" x="477.5" y="-171.8" font-family="Helvetica,sans-Serif" font-size="14.00">Fare ≤ 26.144</text>
<text text-anchor="start" x="488" y="-156.8" font-family="Helvetica,sans-Serif" font-size="14.00">gini = 0.46</text>
<text text-anchor="start" x="475" y="-141.8" font-family="Helvetica,sans-Serif" font-size="14.00">samples = 120</text>
<text text-anchor="start" x="473" y="-126.8" font-family="Helvetica,sans-Serif" font-size="14.00">value = [77, 43]</text>
<text text-anchor="start" x="458" y="-111.8" font-family="Helvetica,sans-Serif" font-size="14.00">class = Not Survived</text>
</g>
<!-- 6&#45;&gt;8 -->
<g id="edge7" class="edge">
<title>6&#45;&gt;8</title>
<path fill="none" stroke="black" d="M416.82,-222.91C429.81,-213.29 443.76,-202.95 457.08,-193.09"/>
<polygon fill="black" stroke="black" points="459.33,-195.78 465.28,-187.02 455.16,-190.16 459.33,-195.78"/>
</g>
<!-- 15 -->
<g id="node9" class="node">
<title>15</title>
<path fill="#e58139" stroke="black" d="M420,-68C420,-68 304,-68 304,-68 298,-68 292,-62 292,-56 292,-56 292,-12 292,-12 292,-6 298,0 304,0 304,0 420,0 420,0 426,0 432,-6 432,-12 432,-12 432,-56 432,-56 432,-62 426,-68 420,-68"/>
<text text-anchor="start" x="334" y="-52.8" font-family="Helvetica,sans-Serif" font-size="14.00">gini = 0.0</text>
<text text-anchor="start" x="321" y="-37.8" font-family="Helvetica,sans-Serif" font-size="14.00">samples = 10</text>
<text text-anchor="start" x="319" y="-22.8" font-family="Helvetica,sans-Serif" font-size="14.00">value = [10, 0]</text>
<text text-anchor="start" x="300" y="-7.8" font-family="Helvetica,sans-Serif" font-size="14.00">class = Not Survived</text>
</g>
<!-- 8&#45;&gt;15 -->
<g id="edge8" class="edge">
<title>8&#45;&gt;15</title>
<path fill="none" stroke="black" d="M461.17,-103.73C447.14,-94.01 432.21,-83.66 418.31,-74.02"/>
<polygon fill="black" stroke="black" points="420.01,-70.94 409.8,-68.13 416.02,-76.7 420.01,-70.94"/>
</g>
<!-- 16 -->
<g id="node10" class="node">
<title>16</title>
<path fill="#f6d2b8" stroke="black" d="M578,-68C578,-68 462,-68 462,-68 456,-68 450,-62 450,-56 450,-56 450,-12 450,-12 450,-6 456,0 462,0 462,0 578,0 578,0 584,0 590,-6 590,-12 590,-12 590,-56 590,-56 590,-62 584,-68 578,-68"/>
<text text-anchor="start" x="484.5" y="-52.8" font-family="Helvetica,sans-Serif" font-size="14.00">gini = 0.476</text>
<text text-anchor="start" x="475.5" y="-37.8" font-family="Helvetica,sans-Serif" font-size="14.00">samples = 110</text>
<text text-anchor="start" x="473" y="-22.8" font-family="Helvetica,sans-Serif" font-size="14.00">value = [67, 43]</text>
<text text-anchor="start" x="458" y="-7.8" font-family="Helvetica,sans-Serif" font-size="14.00">class = Not Survived</text>
</g>
<!-- 8&#45;&gt;16 -->
<g id="edge9" class="edge">
<title>8&#45;&gt;16</title>
<path fill="none" stroke="black" d="M520,-103.73C520,-95.52 520,-86.86 520,-78.56"/>
<polygon fill="black" stroke="black" points="523.5,-78.3 520,-68.3 516.5,-78.3 523.5,-78.3"/>
</g>
<!-- 3 -->
<g id="node12" class="node">
<title>3</title>
<path fill="#44a2e6" stroke="black" d="M566,-298.5C566,-298.5 474,-298.5 474,-298.5 468,-298.5 462,-292.5 462,-286.5 462,-286.5 462,-242.5 462,-242.5 462,-236.5 468,-230.5 474,-230.5 474,-230.5 566,-230.5 566,-230.5 572,-230.5 578,-236.5 578,-242.5 578,-242.5 578,-286.5 578,-286.5 578,-292.5 572,-298.5 566,-298.5"/>
<text text-anchor="start" x="492" y="-283.3" font-family="Helvetica,sans-Serif" font-size="14.00">gini = 0.1</text>
<text text-anchor="start" x="475" y="-268.3" font-family="Helvetica,sans-Serif" font-size="14.00">samples = 170</text>
<text text-anchor="start" x="473" y="-253.3" font-family="Helvetica,sans-Serif" font-size="14.00">value = [9, 161]</text>
<text text-anchor="start" x="470" y="-238.3" font-family="Helvetica,sans-Serif" font-size="14.00">class = Survived</text>
</g>
<!-- 2&#45;&gt;3 -->
<g id="edge11" class="edge">
<title>2&#45;&gt;3</title>
<path fill="none" stroke="black" d="M520,-341.91C520,-331.2 520,-319.62 520,-308.78"/>
<polygon fill="black" stroke="black" points="523.5,-308.67 520,-298.67 516.5,-308.67 523.5,-308.67"/>
</g>
<!-- 4 -->
<g id="node13" class="node">
<title>4</title>
<path fill="#ffffff" stroke="black" d="M724,-306C724,-306 608,-306 608,-306 602,-306 596,-300 596,-294 596,-294 596,-235 596,-235 596,-229 602,-223 608,-223 608,-223 724,-223 724,-223 730,-223 736,-229 736,-235 736,-235 736,-294 736,-294 736,-300 730,-306 724,-306"/>
<text text-anchor="start" x="627.5" y="-290.8" font-family="Helvetica,sans-Serif" font-size="14.00">Fare ≤ 23.35</text>
<text text-anchor="start" x="638" y="-275.8" font-family="Helvetica,sans-Serif" font-size="14.00">gini = 0.5</text>
<text text-anchor="start" x="621" y="-260.8" font-family="Helvetica,sans-Serif" font-size="14.00">samples = 144</text>
<text text-anchor="start" x="619" y="-245.8" font-family="Helvetica,sans-Serif" font-size="14.00">value = [72, 72]</text>
<text text-anchor="start" x="604" y="-230.8" font-family="Helvetica,sans-Serif" font-size="14.00">class = Not Survived</text>
</g>
<!-- 2&#45;&gt;4 -->
<g id="edge12" class="edge">
<title>2&#45;&gt;4</title>
<path fill="none" stroke="black" d="M570.65,-341.91C582.54,-332.38 595.31,-322.15 607.51,-312.37"/>
<polygon fill="black" stroke="black" points="609.82,-315.01 615.44,-306.02 605.44,-309.54 609.82,-315.01"/>
</g>
<!-- 9 -->
<g id="node14" class="node">
<title>9</title>
<path fill="#c3e1f7" stroke="black" d="M712,-187C712,-187 620,-187 620,-187 614,-187 608,-181 608,-175 608,-175 608,-116 608,-116 608,-110 614,-104 620,-104 620,-104 712,-104 712,-104 718,-104 724,-110 724,-116 724,-116 724,-175 724,-175 724,-181 718,-187 712,-187"/>
<text text-anchor="start" x="633" y="-171.8" font-family="Helvetica,sans-Serif" font-size="14.00">Age ≤ 36.5</text>
<text text-anchor="start" x="630.5" y="-156.8" font-family="Helvetica,sans-Serif" font-size="14.00">gini = 0.484</text>
<text text-anchor="start" x="621.5" y="-141.8" font-family="Helvetica,sans-Serif" font-size="14.00">samples = 117</text>
<text text-anchor="start" x="619" y="-126.8" font-family="Helvetica,sans-Serif" font-size="14.00">value = [48, 69]</text>
<text text-anchor="start" x="616" y="-111.8" font-family="Helvetica,sans-Serif" font-size="14.00">class = Survived</text>
</g>
<!-- 4&#45;&gt;9 -->
<g id="edge13" class="edge">
<title>4&#45;&gt;9</title>
<path fill="none" stroke="black" d="M666,-222.91C666,-214.65 666,-205.86 666,-197.3"/>
<polygon fill="black" stroke="black" points="669.5,-197.02 666,-187.02 662.5,-197.02 669.5,-197.02"/>
</g>
<!-- 10 -->
<g id="node17" class="node">
<title>10</title>
<path fill="#e89152" stroke="black" d="M870,-179.5C870,-179.5 754,-179.5 754,-179.5 748,-179.5 742,-173.5 742,-167.5 742,-167.5 742,-123.5 742,-123.5 742,-117.5 748,-111.5 754,-111.5 754,-111.5 870,-111.5 870,-111.5 876,-111.5 882,-117.5 882,-123.5 882,-123.5 882,-167.5 882,-167.5 882,-173.5 876,-179.5 870,-179.5"/>
<text text-anchor="start" x="776.5" y="-164.3" font-family="Helvetica,sans-Serif" font-size="14.00">gini = 0.198</text>
<text text-anchor="start" x="771" y="-149.3" font-family="Helvetica,sans-Serif" font-size="14.00">samples = 27</text>
<text text-anchor="start" x="769" y="-134.3" font-family="Helvetica,sans-Serif" font-size="14.00">value = [24, 3]</text>
<text text-anchor="start" x="750" y="-119.3" font-family="Helvetica,sans-Serif" font-size="14.00">class = Not Survived</text>
</g>
<!-- 4&#45;&gt;10 -->
<g id="edge16" class="edge">
<title>4&#45;&gt;10</title>
<path fill="none" stroke="black" d="M716.65,-222.91C731.53,-210.99 747.77,-197.98 762.56,-186.12"/>
<polygon fill="black" stroke="black" points="765,-188.65 770.61,-179.67 760.62,-183.19 765,-188.65"/>
</g>
<!-- 13 -->
<g id="node15" class="node">
<title>13</title>
<path fill="#b3daf5" stroke="black" d="M712,-68C712,-68 620,-68 620,-68 614,-68 608,-62 608,-56 608,-56 608,-12 608,-12 608,-6 614,0 620,0 620,0 712,0 712,0 718,0 724,-6 724,-12 724,-12 724,-56 724,-56 724,-62 718,-68 712,-68"/>
<text text-anchor="start" x="630.5" y="-52.8" font-family="Helvetica,sans-Serif" font-size="14.00">gini = 0.472</text>
<text text-anchor="start" x="621.5" y="-37.8" font-family="Helvetica,sans-Serif" font-size="14.00">samples = 110</text>
<text text-anchor="start" x="619" y="-22.8" font-family="Helvetica,sans-Serif" font-size="14.00">value = [42, 68]</text>
<text text-anchor="start" x="616" y="-7.8" font-family="Helvetica,sans-Serif" font-size="14.00">class = Survived</text>
</g>
<!-- 9&#45;&gt;13 -->
<g id="edge14" class="edge">
<title>9&#45;&gt;13</title>
<path fill="none" stroke="black" d="M666,-103.73C666,-95.52 666,-86.86 666,-78.56"/>
<polygon fill="black" stroke="black" points="669.5,-78.3 666,-68.3 662.5,-78.3 669.5,-78.3"/>
</g>
<!-- 14 -->
<g id="node16" class="node">
<title>14</title>
<path fill="#e9965a" stroke="black" d="M870,-68C870,-68 754,-68 754,-68 748,-68 742,-62 742,-56 742,-56 742,-12 742,-12 742,-6 748,0 754,0 754,0 870,0 870,0 876,0 882,-6 882,-12 882,-12 882,-56 882,-56 882,-62 876,-68 870,-68"/>
<text text-anchor="start" x="776.5" y="-52.8" font-family="Helvetica,sans-Serif" font-size="14.00">gini = 0.245</text>
<text text-anchor="start" x="774.5" y="-37.8" font-family="Helvetica,sans-Serif" font-size="14.00">samples = 7</text>
<text text-anchor="start" x="772.5" y="-22.8" font-family="Helvetica,sans-Serif" font-size="14.00">value = [6, 1]</text>
<text text-anchor="start" x="750" y="-7.8" font-family="Helvetica,sans-Serif" font-size="14.00">class = Not Survived</text>
</g>
<!-- 9&#45;&gt;14 -->
<g id="edge15" class="edge">
<title>9&#45;&gt;14</title>
<path fill="none" stroke="black" d="M720.37,-103.73C733.13,-94.15 746.72,-83.96 759.41,-74.44"/>
<polygon fill="black" stroke="black" points="761.7,-77.1 767.6,-68.3 757.5,-71.5 761.7,-77.1"/>
</g>
</g>
</svg>
