<?xml version="1.0" encoding="UTF-8" standalone="no"?>
<!DOCTYPE svg PUBLIC "-//W3C//DTD SVG 1.1//EN"
 "http://www.w3.org/Graphics/SVG/1.1/DTD/svg11.dtd">
<!-- Generated by graphviz version 2.50.0 (0)
 -->
<!-- Title: Tree Pages: 1 -->
<svg width="890pt" height="552pt"
 viewBox="0.00 0.00 890.00 552.00" xmlns="http://www.w3.org/2000/svg" xmlns:xlink="http://www.w3.org/1999/xlink">
<g id="graph0" class="graph" transform="scale(1 1) rotate(0) translate(4 548)">
<title>Tree</title>
<polygon fill="white" stroke="transparent" points="-4,4 -4,-548 886,-548 886,4 -4,4"/>
<!-- 0 -->
<g id="node1" class="node">
<title>0</title>
<path fill="#f5cfb4" stroke="black" d="M341,-544C341,-544 225,-544 225,-544 219,-544 213,-538 213,-532 213,-532 213,-473 213,-473 213,-467 219,-461 225,-461 225,-461 341,-461 341,-461 347,-461 353,-467 353,-473 353,-473 353,-532 353,-532 353,-538 347,-544 341,-544"/>
<text text-anchor="start" x="235.5" y="-528.8" font-family="Helvetica,sans-Serif" font-size="14.00">Sex_male ≤ 0.5</text>
<text text-anchor="start" x="235.5" y="-513.8" font-family="Helvetica,sans-Serif" font-size="14.00">entropy = 0.961</text>
<text text-anchor="start" x="238" y="-498.8" font-family="Helvetica,sans-Serif" font-size="14.00">samples = 891</text>
<text text-anchor="start" x="228.5" y="-483.8" font-family="Helvetica,sans-Serif" font-size="14.00">value = [549, 342]</text>
<text text-anchor="start" x="221" y="-468.8" font-family="Helvetica,sans-Serif" font-size="14.00">class = Not Survived</text>
</g>
<!-- 1 -->
<g id="node2" class="node">
<title>1</title>
<path fill="#7ebfee" stroke="black" d="M250.5,-425C250.5,-425 157.5,-425 157.5,-425 151.5,-425 145.5,-419 145.5,-413 145.5,-413 145.5,-354 145.5,-354 145.5,-348 151.5,-342 157.5,-342 157.5,-342 250.5,-342 250.5,-342 256.5,-342 262.5,-348 262.5,-354 262.5,-354 262.5,-413 262.5,-413 262.5,-419 256.5,-425 250.5,-425"/>
<text text-anchor="start" x="159.5" y="-409.8" font-family="Helvetica,sans-Serif" font-size="14.00">Pclass_3 ≤ 0.5</text>
<text text-anchor="start" x="156.5" y="-394.8" font-family="Helvetica,sans-Serif" font-size="14.00">entropy = 0.824</text>
<text text-anchor="start" x="159" y="-379.8" font-family="Helvetica,sans-Serif" font-size="14.00">samples = 314</text>
<text text-anchor="start" x="153.5" y="-364.8" font-family="Helvetica,sans-Serif" font-size="14.00">value = [81, 233]</text>
<text text-anchor="start" x="154" y="-349.8" font-family="Helvetica,sans-Serif" font-size="14.00">class = Survived</text>
</g>
<!-- 0&#45;&gt;1 -->
<g id="edge1" class="edge">
<title>0&#45;&gt;1</title>
<path fill="none" stroke="black" d="M255.59,-460.91C249.59,-452.01 243.17,-442.51 236.97,-433.33"/>
<polygon fill="black" stroke="black" points="239.86,-431.35 231.36,-425.02 234.06,-435.27 239.86,-431.35"/>
<text text-anchor="middle" x="226.6" y="-445.86" font-family="Helvetica,sans-Serif" font-size="14.00">True</text>
</g>
<!-- 2 -->
<g id="node7" class="node">
<title>2</title>
<path fill="#eb9e67" stroke="black" d="M487,-425C487,-425 371,-425 371,-425 365,-425 359,-419 359,-413 359,-413 359,-354 359,-354 359,-348 365,-342 371,-342 371,-342 487,-342 487,-342 493,-342 499,-348 499,-354 499,-354 499,-413 499,-413 499,-419 493,-425 487,-425"/>
<text text-anchor="start" x="386.5" y="-409.8" font-family="Helvetica,sans-Serif" font-size="14.00">Fare ≤ 26.269</text>
<text text-anchor="start" x="381.5" y="-394.8" font-family="Helvetica,sans-Serif" font-size="14.00">entropy = 0.699</text>
<text text-anchor="start" x="384" y="-379.8" font-family="Helvetica,sans-Serif" font-size="14.00">samples = 577</text>
<text text-anchor="start" x="374.5" y="-364.8" font-family="Helvetica,sans-Serif" font-size="14.00">value = [468, 109]</text>
<text text-anchor="start" x="367" y="-349.8" font-family="Helvetica,sans-Serif" font-size="14.00">class = Not Survived</text>
</g>
<!-- 0&#45;&gt;2 -->
<g id="edge6" class="edge">
<title>0&#45;&gt;2</title>
<path fill="none" stroke="black" d="M333.65,-460.91C345.54,-451.38 358.31,-441.15 370.51,-431.37"/>
<polygon fill="black" stroke="black" points="372.82,-434.01 378.44,-425.02 368.44,-428.54 372.82,-434.01"/>
<text text-anchor="middle" x="375.7" y="-446.17" font-family="Helvetica,sans-Serif" font-size="14.00">False</text>
</g>
<!-- 3 -->
<g id="node3" class="node">
<title>3</title>
<path fill="#44a2e6" stroke="black" d="M104,-298.5C104,-298.5 12,-298.5 12,-298.5 6,-298.5 0,-292.5 0,-286.5 0,-286.5 0,-242.5 0,-242.5 0,-236.5 6,-230.5 12,-230.5 12,-230.5 104,-230.5 104,-230.5 110,-230.5 116,-236.5 116,-242.5 116,-242.5 116,-286.5 116,-286.5 116,-292.5 110,-298.5 104,-298.5"/>
<text text-anchor="start" x="10.5" y="-283.3" font-family="Helvetica,sans-Serif" font-size="14.00">entropy = 0.299</text>
<text text-anchor="start" x="13" y="-268.3" font-family="Helvetica,sans-Serif" font-size="14.00">samples = 170</text>
<text text-anchor="start" x="11" y="-253.3" font-family="Helvetica,sans-Serif" font-size="14.00">value = [9, 161]</text>
<text text-anchor="start" x="8" y="-238.3" font-family="Helvetica,sans-Serif" font-size="14.00">class = Survived</text>
</g>
<!-- 1&#45;&gt;3 -->
<g id="edge2" class="edge">
<title>1&#45;&gt;3</title>
<path fill="none" stroke="black" d="M153.35,-341.91C138.47,-329.99 122.23,-316.98 107.44,-305.12"/>
<polygon fill="black" stroke="black" points="109.38,-302.19 99.39,-298.67 105,-307.65 109.38,-302.19"/>
</g>
<!-- 4 -->
<g id="node4" class="node">
<title>4</title>
<path fill="#ffffff" stroke="black" d="M262,-306C262,-306 146,-306 146,-306 140,-306 134,-300 134,-294 134,-294 134,-235 134,-235 134,-229 140,-223 146,-223 146,-223 262,-223 262,-223 268,-223 274,-229 274,-235 274,-235 274,-294 274,-294 274,-300 268,-306 262,-306"/>
<text text-anchor="start" x="165.5" y="-290.8" font-family="Helvetica,sans-Serif" font-size="14.00">Fare ≤ 23.35</text>
<text text-anchor="start" x="164" y="-275.8" font-family="Helvetica,sans-Serif" font-size="14.00">entropy = 1.0</text>
<text text-anchor="start" x="159" y="-260.8" font-family="Helvetica,sans-Serif" font-size="14.00">samples = 144</text>
<text text-anchor="start" x="157" y="-245.8" font-family="Helvetica,sans-Serif" font-size="14.00">value = [72, 72]</text>
<text text-anchor="start" x="142" y="-230.8" font-family="Helvetica,sans-Serif" font-size="14.00">class = Not Survived</text>
</g>
<!-- 1&#45;&gt;4 -->
<g id="edge3" class="edge">
<title>1&#45;&gt;4</title>
<path fill="none" stroke="black" d="M204,-341.91C204,-333.65 204,-324.86 204,-316.3"/>
<polygon fill="black" stroke="black" points="207.5,-316.02 204,-306.02 200.5,-316.02 207.5,-316.02"/>
</g>
<!-- 9 -->
<g id="node5" class="node">
<title>9</title>
<path fill="#c3e1f7" stroke="black" d="M104,-179.5C104,-179.5 12,-179.5 12,-179.5 6,-179.5 0,-173.5 0,-167.5 0,-167.5 0,-123.5 0,-123.5 0,-117.5 6,-111.5 12,-111.5 12,-111.5 104,-111.5 104,-111.5 110,-111.5 116,-117.5 116,-123.5 116,-123.5 116,-167.5 116,-167.5 116,-173.5 110,-179.5 104,-179.5"/>
<text text-anchor="start" x="10.5" y="-164.3" font-family="Helvetica,sans-Serif" font-size="14.00">entropy = 0.977</text>
<text text-anchor="start" x="13.5" y="-149.3" font-family="Helvetica,sans-Serif" font-size="14.00">samples = 117</text>
<text text-anchor="start" x="11" y="-134.3" font-family="Helvetica,sans-Serif" font-size="14.00">value = [48, 69]</text>
<text text-anchor="start" x="8" y="-119.3" font-family="Helvetica,sans-Serif" font-size="14.00">class = Survived</text>
</g>
<!-- 4&#45;&gt;9 -->
<g id="edge4" class="edge">
<title>4&#45;&gt;9</title>
<path fill="none" stroke="black" d="M153.35,-222.91C138.47,-210.99 122.23,-197.98 107.44,-186.12"/>
<polygon fill="black" stroke="black" points="109.38,-183.19 99.39,-179.67 105,-188.65 109.38,-183.19"/>
</g>
<!-- 10 -->
<g id="node6" class="node">
<title>10</title>
<path fill="#e89152" stroke="black" d="M262,-179.5C262,-179.5 146,-179.5 146,-179.5 140,-179.5 134,-173.5 134,-167.5 134,-167.5 134,-123.5 134,-123.5 134,-117.5 140,-111.5 146,-111.5 146,-111.5 262,-111.5 262,-111.5 268,-111.5 274,-117.5 274,-123.5 274,-123.5 274,-167.5 274,-167.5 274,-173.5 268,-179.5 262,-179.5"/>
<text text-anchor="start" x="156.5" y="-164.3" font-family="Helvetica,sans-Serif" font-size="14.00">entropy = 0.503</text>
<text text-anchor="start" x="163" y="-149.3" font-family="Helvetica,sans-Serif" font-size="14.00">samples = 27</text>
<text text-anchor="start" x="161" y="-134.3" font-family="Helvetica,sans-Serif" font-size="14.00">value = [24, 3]</text>
<text text-anchor="start" x="142" y="-119.3" font-family="Helvetica,sans-Serif" font-size="14.00">class = Not Survived</text>
</g>
<!-- 4&#45;&gt;10 -->
<g id="edge5" class="edge">
<title>4&#45;&gt;10</title>
<path fill="none" stroke="black" d="M204,-222.91C204,-212.2 204,-200.62 204,-189.78"/>
<polygon fill="black" stroke="black" points="207.5,-189.67 204,-179.67 200.5,-189.67 207.5,-189.67"/>
</g>
<!-- 5 -->
<g id="node8" class="node">
<title>5</title>
<path fill="#e99457" stroke="black" d="M487,-306C487,-306 371,-306 371,-306 365,-306 359,-300 359,-294 359,-294 359,-235 359,-235 359,-229 365,-223 371,-223 371,-223 487,-223 487,-223 493,-223 499,-229 499,-235 499,-235 499,-294 499,-294 499,-300 493,-306 487,-306"/>
<text text-anchor="start" x="396" y="-290.8" font-family="Helvetica,sans-Serif" font-size="14.00">Age ≤ 13.5</text>
<text text-anchor="start" x="381.5" y="-275.8" font-family="Helvetica,sans-Serif" font-size="14.00">entropy = 0.558</text>
<text text-anchor="start" x="384" y="-260.8" font-family="Helvetica,sans-Serif" font-size="14.00">samples = 415</text>
<text text-anchor="start" x="378.5" y="-245.8" font-family="Helvetica,sans-Serif" font-size="14.00">value = [361, 54]</text>
<text text-anchor="start" x="367" y="-230.8" font-family="Helvetica,sans-Serif" font-size="14.00">class = Not Survived</text>
</g>
<!-- 2&#45;&gt;5 -->
<g id="edge7" class="edge">
<title>2&#45;&gt;5</title>
<path fill="none" stroke="black" d="M429,-341.91C429,-333.65 429,-324.86 429,-316.3"/>
<polygon fill="black" stroke="black" points="432.5,-316.02 429,-306.02 425.5,-316.02 432.5,-316.02"/>
</g>
<!-- 6 -->
<g id="node11" class="node">
<title>6</title>
<path fill="#f2c29f" stroke="black" d="M712,-306C712,-306 596,-306 596,-306 590,-306 584,-300 584,-294 584,-294 584,-235 584,-235 584,-229 590,-223 596,-223 596,-223 712,-223 712,-223 718,-223 724,-229 724,-235 724,-235 724,-294 724,-294 724,-300 718,-306 712,-306"/>
<text text-anchor="start" x="619" y="-290.8" font-family="Helvetica,sans-Serif" font-size="14.00">SibSp ≤ 2.5</text>
<text text-anchor="start" x="606.5" y="-275.8" font-family="Helvetica,sans-Serif" font-size="14.00">entropy = 0.924</text>
<text text-anchor="start" x="609" y="-260.8" font-family="Helvetica,sans-Serif" font-size="14.00">samples = 162</text>
<text text-anchor="start" x="603.5" y="-245.8" font-family="Helvetica,sans-Serif" font-size="14.00">value = [107, 55]</text>
<text text-anchor="start" x="592" y="-230.8" font-family="Helvetica,sans-Serif" font-size="14.00">class = Not Survived</text>
</g>
<!-- 2&#45;&gt;6 -->
<g id="edge10" class="edge">
<title>2&#45;&gt;6</title>
<path fill="none" stroke="black" d="M499.27,-345.96C523.27,-333.48 550.27,-319.44 574.92,-306.62"/>
<polygon fill="black" stroke="black" points="576.62,-309.68 583.88,-301.96 573.39,-303.47 576.62,-309.68"/>
</g>
<!-- 7 -->
<g id="node9" class="node">
<title>7</title>
<path fill="#57ace9" stroke="black" d="M396,-179.5C396,-179.5 304,-179.5 304,-179.5 298,-179.5 292,-173.5 292,-167.5 292,-167.5 292,-123.5 292,-123.5 292,-117.5 298,-111.5 304,-111.5 304,-111.5 396,-111.5 396,-111.5 402,-111.5 408,-117.5 408,-123.5 408,-123.5 408,-167.5 408,-167.5 408,-173.5 402,-179.5 396,-179.5"/>
<text text-anchor="start" x="302.5" y="-164.3" font-family="Helvetica,sans-Serif" font-size="14.00">entropy = 0.567</text>
<text text-anchor="start" x="309" y="-149.3" font-family="Helvetica,sans-Serif" font-size="14.00">samples = 15</text>
<text text-anchor="start" x="307" y="-134.3" font-family="Helvetica,sans-Serif" font-size="14.00">value = [2, 13]</text>
<text text-anchor="start" x="300" y="-119.3" font-family="Helvetica,sans-Serif" font-size="14.00">class = Survived</text>
</g>
<!-- 5&#45;&gt;7 -->
<g id="edge8" class="edge">
<title>5&#45;&gt;7</title>
<path fill="none" stroke="black" d="M401.59,-222.91C393.99,-211.65 385.73,-199.42 378.09,-188.11"/>
<polygon fill="black" stroke="black" points="380.89,-186 372.39,-179.67 375.09,-189.91 380.89,-186"/>
</g>
<!-- 8 -->
<g id="node10" class="node">
<title>8</title>
<path fill="#e88f50" stroke="black" d="M554,-179.5C554,-179.5 438,-179.5 438,-179.5 432,-179.5 426,-173.5 426,-167.5 426,-167.5 426,-123.5 426,-123.5 426,-117.5 432,-111.5 438,-111.5 438,-111.5 554,-111.5 554,-111.5 560,-111.5 566,-117.5 566,-123.5 566,-123.5 566,-167.5 566,-167.5 566,-173.5 560,-179.5 554,-179.5"/>
<text text-anchor="start" x="448.5" y="-164.3" font-family="Helvetica,sans-Serif" font-size="14.00">entropy = 0.477</text>
<text text-anchor="start" x="451" y="-149.3" font-family="Helvetica,sans-Serif" font-size="14.00">samples = 400</text>
<text text-anchor="start" x="445.5" y="-134.3" font-family="Helvetica,sans-Serif" font-size="14.00">value = [359, 41]</text>
<text text-anchor="start" x="434" y="-119.3" font-family="Helvetica,sans-Serif" font-size="14.00">class = Not Survived</text>
</g>
<!-- 5&#45;&gt;8 -->
<g id="edge9" class="edge">
<title>5&#45;&gt;8</title>
<path fill="none" stroke="black" d="M452.25,-222.91C458.63,-211.76 465.56,-199.66 471.98,-188.44"/>
<polygon fill="black" stroke="black" points="475.07,-190.08 477.01,-179.67 469,-186.61 475.07,-190.08"/>
</g>
<!-- 11 -->
<g id="node12" class="node">
<title>11</title>
<path fill="#f6d1b7" stroke="black" d="M712,-187C712,-187 596,-187 596,-187 590,-187 584,-181 584,-175 584,-175 584,-116 584,-116 584,-110 590,-104 596,-104 596,-104 712,-104 712,-104 718,-104 724,-110 724,-116 724,-116 724,-175 724,-175 724,-181 718,-187 712,-187"/>
<text text-anchor="start" x="621" y="-171.8" font-family="Helvetica,sans-Serif" font-size="14.00">Age ≤ 13.5</text>
<text text-anchor="start" x="606.5" y="-156.8" font-family="Helvetica,sans-Serif" font-size="14.00">entropy = 0.964</text>
<text text-anchor="start" x="609" y="-141.8" font-family="Helvetica,sans-Serif" font-size="14.00">samples = 139</text>
<text text-anchor="start" x="607" y="-126.8" font-family="Helvetica,sans-Serif" font-size="14.00">value = [85, 54]</text>
<text text-anchor="start" x="592" y="-111.8" font-family="Helvetica,sans-Serif" font-size="14.00">class = Not Survived</text>
</g>
<!-- 6&#45;&gt;11 -->
<g id="edge11" class="edge">
<title>6&#45;&gt;11</title>
<path fill="none" stroke="black" d="M654,-222.91C654,-214.65 654,-205.86 654,-197.3"/>
<polygon fill="black" stroke="black" points="657.5,-197.02 654,-187.02 650.5,-197.02 657.5,-197.02"/>
</g>
<!-- 12 -->
<g id="node15" class="node">
<title>12</title>
<path fill="#e68742" stroke="black" d="M870,-179.5C870,-179.5 754,-179.5 754,-179.5 748,-179.5 742,-173.5 742,-167.5 742,-167.5 742,-123.5 742,-123.5 742,-117.5 748,-111.5 754,-111.5 754,-111.5 870,-111.5 870,-111.5 876,-111.5 882,-117.5 882,-123.5 882,-123.5 882,-167.5 882,-167.5 882,-173.5 876,-179.5 870,-179.5"/>
<text text-anchor="start" x="764.5" y="-164.3" font-family="Helvetica,sans-Serif" font-size="14.00">entropy = 0.258</text>
<text text-anchor="start" x="771" y="-149.3" font-family="Helvetica,sans-Serif" font-size="14.00">samples = 23</text>
<text text-anchor="start" x="769" y="-134.3" font-family="Helvetica,sans-Serif" font-size="14.00">value = [22, 1]</text>
<text text-anchor="start" x="750" y="-119.3" font-family="Helvetica,sans-Serif" font-size="14.00">class = Not Survived</text>
</g>
<!-- 6&#45;&gt;12 -->
<g id="edge14" class="edge">
<title>6&#45;&gt;12</title>
<path fill="none" stroke="black" d="M708.82,-222.91C725.06,-210.88 742.81,-197.73 758.94,-185.79"/>
<polygon fill="black" stroke="black" points="761.26,-188.43 767.21,-179.67 757.09,-182.81 761.26,-188.43"/>
</g>
<!-- 13 -->
<g id="node13" class="node">
<title>13</title>
<path fill="#399de5" stroke="black" d="M627,-68C627,-68 535,-68 535,-68 529,-68 523,-62 523,-56 523,-56 523,-12 523,-12 523,-6 529,0 535,0 535,0 627,0 627,0 633,0 639,-6 639,-12 639,-12 639,-56 639,-56 639,-62 633,-68 627,-68"/>
<text text-anchor="start" x="541" y="-52.8" font-family="Helvetica,sans-Serif" font-size="14.00">entropy = 0.0</text>
<text text-anchor="start" x="543.5" y="-37.8" font-family="Helvetica,sans-Serif" font-size="14.00">samples = 7</text>
<text text-anchor="start" x="541.5" y="-22.8" font-family="Helvetica,sans-Serif" font-size="14.00">value = [0, 7]</text>
<text text-anchor="start" x="531" y="-7.8" font-family="Helvetica,sans-Serif" font-size="14.00">class = Survived</text>
</g>
<!-- 11&#45;&gt;13 -->
<g id="edge12" class="edge">
<title>11&#45;&gt;13</title>
<path fill="none" stroke="black" d="M626.82,-103.73C620.92,-94.88 614.67,-85.51 608.75,-76.63"/>
<polygon fill="black" stroke="black" points="611.66,-74.68 603.2,-68.3 605.83,-78.56 611.66,-74.68"/>
</g>
<!-- 14 -->
<g id="node14" class="node">
<title>14</title>
<path fill="#f3c7a6" stroke="black" d="M785,-68C785,-68 669,-68 669,-68 663,-68 657,-62 657,-56 657,-56 657,-12 657,-12 657,-6 663,0 669,0 669,0 785,0 785,0 791,0 797,-6 797,-12 797,-12 797,-56 797,-56 797,-62 791,-68 785,-68"/>
<text text-anchor="start" x="679.5" y="-52.8" font-family="Helvetica,sans-Serif" font-size="14.00">entropy = 0.939</text>
<text text-anchor="start" x="682" y="-37.8" font-family="Helvetica,sans-Serif" font-size="14.00">samples = 132</text>
<text text-anchor="start" x="680" y="-22.8" font-family="Helvetica,sans-Serif" font-size="14.00">value = [85, 47]</text>
<text text-anchor="start" x="665" y="-7.8" font-family="Helvetica,sans-Serif" font-size="14.00">class = Not Survived</text>
</g>
<!-- 11&#45;&gt;14 -->
<g id="edge13" class="edge">
<title>11&#45;&gt;14</title>
<path fill="none" stroke="black" d="M681.18,-103.73C687.08,-94.88 693.33,-85.51 699.25,-76.63"/>
<polygon fill="black" stroke="black" points="702.17,-78.56 704.8,-68.3 696.34,-74.68 702.17,-78.56"/>
</g>
</g>
</svg>
