<?xml version="1.0" encoding="UTF-8" standalone="no"?>
<!DOCTYPE svg PUBLIC "-//W3C//DTD SVG 1.1//EN"
 "http://www.w3.org/Graphics/SVG/1.1/DTD/svg11.dtd">
<!-- Generated by graphviz version 2.50.0 (0)
 -->
<!-- Title: Tree Pages: 1 -->
<svg width="350pt" height="314pt"
 viewBox="0.00 0.00 350.00 314.00" xmlns="http://www.w3.org/2000/svg" xmlns:xlink="http://www.w3.org/1999/xlink">
<g id="graph0" class="graph" transform="scale(1 1) rotate(0) translate(4 310)">
<title>Tree</title>
<polygon fill="white" stroke="transparent" points="-4,4 -4,-310 346,-310 346,4 -4,4"/>
<!-- 0 -->
<g id="node1" class="node">
<title>0</title>
<path fill="#f5d0b5" stroke="black" d="M201,-306C201,-306 85,-306 85,-306 79,-306 73,-300 73,-294 73,-294 73,-235 73,-235 73,-229 79,-223 85,-223 85,-223 201,-223 201,-223 207,-223 213,-229 213,-235 213,-235 213,-294 213,-294 213,-300 207,-306 201,-306"/>
<text text-anchor="start" x="90" y="-290.8" font-family="Helvetica,sans-Serif" font-size="14.00">Sex_female ≤ 0.5</text>
<text text-anchor="start" x="107.5" y="-275.8" font-family="Helvetica,sans-Serif" font-size="14.00">gini = 0.473</text>
<text text-anchor="start" x="98" y="-260.8" font-family="Helvetica,sans-Serif" font-size="14.00">samples = 757</text>
<text text-anchor="start" x="88.5" y="-245.8" font-family="Helvetica,sans-Serif" font-size="14.00">value = [466, 291]</text>
<text text-anchor="start" x="81" y="-230.8" font-family="Helvetica,sans-Serif" font-size="14.00">class = Not Survived</text>
</g>
<!-- 1 -->
<g id="node2" class="node">
<title>1</title>
<path fill="#eb9f69" stroke="black" d="M128,-179.5C128,-179.5 12,-179.5 12,-179.5 6,-179.5 0,-173.5 0,-167.5 0,-167.5 0,-123.5 0,-123.5 0,-117.5 6,-111.5 12,-111.5 12,-111.5 128,-111.5 128,-111.5 134,-111.5 140,-117.5 140,-123.5 140,-123.5 140,-167.5 140,-167.5 140,-173.5 134,-179.5 128,-179.5"/>
<text text-anchor="start" x="34.5" y="-164.3" font-family="Helvetica,sans-Serif" font-size="14.00">gini = 0.314</text>
<text text-anchor="start" x="25" y="-149.3" font-family="Helvetica,sans-Serif" font-size="14.00">samples = 493</text>
<text text-anchor="start" x="19.5" y="-134.3" font-family="Helvetica,sans-Serif" font-size="14.00">value = [397, 96]</text>
<text text-anchor="start" x="8" y="-119.3" font-family="Helvetica,sans-Serif" font-size="14.00">class = Not Survived</text>
</g>
<!-- 0&#45;&gt;1 -->
<g id="edge1" class="edge">
<title>0&#45;&gt;1</title>
<path fill="none" stroke="black" d="M117.67,-222.91C110.72,-211.76 103.17,-199.66 96.17,-188.44"/>
<polygon fill="black" stroke="black" points="98.96,-186.3 90.69,-179.67 93.02,-190 98.96,-186.3"/>
<text text-anchor="middle" x="85.05" y="-200.32" font-family="Helvetica,sans-Serif" font-size="14.00">True</text>
</g>
<!-- 2 -->
<g id="node3" class="node">
<title>2</title>
<path fill="#7fc0ee" stroke="black" d="M263.5,-187C263.5,-187 170.5,-187 170.5,-187 164.5,-187 158.5,-181 158.5,-175 158.5,-175 158.5,-116 158.5,-116 158.5,-110 164.5,-104 170.5,-104 170.5,-104 263.5,-104 263.5,-104 269.5,-104 275.5,-110 275.5,-116 275.5,-116 275.5,-175 275.5,-175 275.5,-181 269.5,-187 263.5,-187"/>
<text text-anchor="start" x="172.5" y="-171.8" font-family="Helvetica,sans-Serif" font-size="14.00">Pclass_3 ≤ 0.5</text>
<text text-anchor="start" x="181.5" y="-156.8" font-family="Helvetica,sans-Serif" font-size="14.00">gini = 0.386</text>
<text text-anchor="start" x="172" y="-141.8" font-family="Helvetica,sans-Serif" font-size="14.00">samples = 264</text>
<text text-anchor="start" x="166.5" y="-126.8" font-family="Helvetica,sans-Serif" font-size="14.00">value = [69, 195]</text>
<text text-anchor="start" x="167" y="-111.8" font-family="Helvetica,sans-Serif" font-size="14.00">class = Survived</text>
</g>
<!-- 0&#45;&gt;2 -->
<g id="edge2" class="edge">
<title>0&#45;&gt;2</title>
<path fill="none" stroke="black" d="M168.67,-222.91C174.24,-214.1 180.19,-204.7 185.94,-195.61"/>
<polygon fill="black" stroke="black" points="188.98,-197.34 191.37,-187.02 183.07,-193.6 188.98,-197.34"/>
<text text-anchor="middle" x="196.86" y="-207.71" font-family="Helvetica,sans-Serif" font-size="14.00">False</text>
</g>
<!-- 3 -->
<g id="node4" class="node">
<title>3</title>
<path fill="#45a3e7" stroke="black" d="M196,-68C196,-68 104,-68 104,-68 98,-68 92,-62 92,-56 92,-56 92,-12 92,-12 92,-6 98,0 104,0 104,0 196,0 196,0 202,0 208,-6 208,-12 208,-12 208,-56 208,-56 208,-62 202,-68 196,-68"/>
<text text-anchor="start" x="114.5" y="-52.8" font-family="Helvetica,sans-Serif" font-size="14.00">gini = 0.107</text>
<text text-anchor="start" x="105" y="-37.8" font-family="Helvetica,sans-Serif" font-size="14.00">samples = 141</text>
<text text-anchor="start" x="103" y="-22.8" font-family="Helvetica,sans-Serif" font-size="14.00">value = [8, 133]</text>
<text text-anchor="start" x="100" y="-7.8" font-family="Helvetica,sans-Serif" font-size="14.00">class = Survived</text>
</g>
<!-- 2&#45;&gt;3 -->
<g id="edge3" class="edge">
<title>2&#45;&gt;3</title>
<path fill="none" stroke="black" d="M192.05,-103.73C186.69,-94.97 181.02,-85.7 175.64,-76.91"/>
<polygon fill="black" stroke="black" points="178.58,-75 170.38,-68.3 172.61,-78.66 178.58,-75"/>
</g>
<!-- 4 -->
<g id="node5" class="node">
<title>4</title>
<path fill="#fcfdff" stroke="black" d="M330,-68C330,-68 238,-68 238,-68 232,-68 226,-62 226,-56 226,-56 226,-12 226,-12 226,-6 232,0 238,0 238,0 330,0 330,0 336,0 342,-6 342,-12 342,-12 342,-56 342,-56 342,-62 336,-68 330,-68"/>
<text text-anchor="start" x="256" y="-52.8" font-family="Helvetica,sans-Serif" font-size="14.00">gini = 0.5</text>
<text text-anchor="start" x="239" y="-37.8" font-family="Helvetica,sans-Serif" font-size="14.00">samples = 123</text>
<text text-anchor="start" x="237" y="-22.8" font-family="Helvetica,sans-Serif" font-size="14.00">value = [61, 62]</text>
<text text-anchor="start" x="234" y="-7.8" font-family="Helvetica,sans-Serif" font-size="14.00">class = Survived</text>
</g>
<!-- 2&#45;&gt;4 -->
<g id="edge4" class="edge">
<title>2&#45;&gt;4</title>
<path fill="none" stroke="black" d="M241.95,-103.73C247.31,-94.97 252.98,-85.7 258.36,-76.91"/>
<polygon fill="black" stroke="black" points="261.39,-78.66 263.62,-68.3 255.42,-75 261.39,-78.66"/>
</g>
</g>
</svg>
