<?xml version="1.0" encoding="UTF-8" standalone="no"?>
<!DOCTYPE svg PUBLIC "-//W3C//DTD SVG 1.1//EN"
 "http://www.w3.org/Graphics/SVG/1.1/DTD/svg11.dtd">
<!-- Generated by graphviz version 2.50.0 (0)
 -->
<!-- Title: Tree Pages: 1 -->
<svg width="890pt" height="671pt"
 viewBox="0.00 0.00 890.00 671.00" xmlns="http://www.w3.org/2000/svg" xmlns:xlink="http://www.w3.org/1999/xlink">
<g id="graph0" class="graph" transform="scale(1 1) rotate(0) translate(4 667)">
<title>Tree</title>
<polygon fill="white" stroke="transparent" points="-4,4 -4,-667 886,-667 886,4 -4,4"/>
<!-- 0 -->
<g id="node1" class="node">
<title>0</title>
<path fill="#f5cfb4" stroke="black" d="M341,-663C341,-663 225,-663 225,-663 219,-663 213,-657 213,-651 213,-651 213,-592 213,-592 213,-586 219,-580 225,-580 225,-580 341,-580 341,-580 347,-580 353,-586 353,-592 353,-592 353,-651 353,-651 353,-657 347,-663 341,-663"/>
<text text-anchor="start" x="235.5" y="-647.8" font-family="Helvetica,sans-Serif" font-size="14.00">Sex_male ≤ 0.5</text>
<text text-anchor="start" x="235.5" y="-632.8" font-family="Helvetica,sans-Serif" font-size="14.00">entropy = 0.961</text>
<text text-anchor="start" x="238" y="-617.8" font-family="Helvetica,sans-Serif" font-size="14.00">samples = 891</text>
<text text-anchor="start" x="228.5" y="-602.8" font-family="Helvetica,sans-Serif" font-size="14.00">value = [549, 342]</text>
<text text-anchor="start" x="221" y="-587.8" font-family="Helvetica,sans-Serif" font-size="14.00">class = Not Survived</text>
</g>
<!-- 1 -->
<g id="node2" class="node">
<title>1</title>
<path fill="#7ebfee" stroke="black" d="M250.5,-544C250.5,-544 157.5,-544 157.5,-544 151.5,-544 145.5,-538 145.5,-532 145.5,-532 145.5,-473 145.5,-473 145.5,-467 151.5,-461 157.5,-461 157.5,-461 250.5,-461 250.5,-461 256.5,-461 262.5,-467 262.5,-473 262.5,-473 262.5,-532 262.5,-532 262.5,-538 256.5,-544 250.5,-544"/>
<text text-anchor="start" x="159.5" y="-528.8" font-family="Helvetica,sans-Serif" font-size="14.00">Pclass_3 ≤ 0.5</text>
<text text-anchor="start" x="156.5" y="-513.8" font-family="Helvetica,sans-Serif" font-size="14.00">entropy = 0.824</text>
<text text-anchor="start" x="159" y="-498.8" font-family="Helvetica,sans-Serif" font-size="14.00">samples = 314</text>
<text text-anchor="start" x="153.5" y="-483.8" font-family="Helvetica,sans-Serif" font-size="14.00">value = [81, 233]</text>
<text text-anchor="start" x="154" y="-468.8" font-family="Helvetica,sans-Serif" font-size="14.00">class = Survived</text>
</g>
<!-- 0&#45;&gt;1 -->
<g id="edge1" class="edge">
<title>0&#45;&gt;1</title>
<path fill="none" stroke="black" d="M255.59,-579.91C249.59,-571.01 243.17,-561.51 236.97,-552.33"/>
<polygon fill="black" stroke="black" points="239.86,-550.35 231.36,-544.02 234.06,-554.27 239.86,-550.35"/>
<text text-anchor="middle" x="226.6" y="-564.86" font-family="Helvetica,sans-Serif" font-size="14.00">True</text>
</g>
<!-- 2 -->
<g id="node7" class="node">
<title>2</title>
<path fill="#eb9e67" stroke="black" d="M487,-544C487,-544 371,-544 371,-544 365,-544 359,-538 359,-532 359,-532 359,-473 359,-473 359,-467 365,-461 371,-461 371,-461 487,-461 487,-461 493,-461 499,-467 499,-473 499,-473 499,-532 499,-532 499,-538 493,-544 487,-544"/>
<text text-anchor="start" x="386.5" y="-528.8" font-family="Helvetica,sans-Serif" font-size="14.00">Fare ≤ 26.269</text>
<text text-anchor="start" x="381.5" y="-513.8" font-family="Helvetica,sans-Serif" font-size="14.00">entropy = 0.699</text>
<text text-anchor="start" x="384" y="-498.8" font-family="Helvetica,sans-Serif" font-size="14.00">samples = 577</text>
<text text-anchor="start" x="374.5" y="-483.8" font-family="Helvetica,sans-Serif" font-size="14.00">value = [468, 109]</text>
<text text-anchor="start" x="367" y="-468.8" font-family="Helvetica,sans-Serif" font-size="14.00">class = Not Survived</text>
</g>
<!-- 0&#45;&gt;2 -->
<g id="edge6" class="edge">
<title>0&#45;&gt;2</title>
<path fill="none" stroke="black" d="M333.65,-579.91C345.54,-570.38 358.31,-560.15 370.51,-550.37"/>
<polygon fill="black" stroke="black" points="372.82,-553.01 378.44,-544.02 368.44,-547.54 372.82,-553.01"/>
<text text-anchor="middle" x="375.7" y="-565.17" font-family="Helvetica,sans-Serif" font-size="14.00">False</text>
</g>
<!-- 3 -->
<g id="node3" class="node">
<title>3</title>
<path fill="#44a2e6" stroke="black" d="M104,-417.5C104,-417.5 12,-417.5 12,-417.5 6,-417.5 0,-411.5 0,-405.5 0,-405.5 0,-361.5 0,-361.5 0,-355.5 6,-349.5 12,-349.5 12,-349.5 104,-349.5 104,-349.5 110,-349.5 116,-355.5 116,-361.5 116,-361.5 116,-405.5 116,-405.5 116,-411.5 110,-417.5 104,-417.5"/>
<text text-anchor="start" x="10.5" y="-402.3" font-family="Helvetica,sans-Serif" font-size="14.00">entropy = 0.299</text>
<text text-anchor="start" x="13" y="-387.3" font-family="Helvetica,sans-Serif" font-size="14.00">samples = 170</text>
<text text-anchor="start" x="11" y="-372.3" font-family="Helvetica,sans-Serif" font-size="14.00">value = [9, 161]</text>
<text text-anchor="start" x="8" y="-357.3" font-family="Helvetica,sans-Serif" font-size="14.00">class = Survived</text>
</g>
<!-- 1&#45;&gt;3 -->
<g id="edge2" class="edge">
<title>1&#45;&gt;3</title>
<path fill="none" stroke="black" d="M153.35,-460.91C138.47,-448.99 122.23,-435.98 107.44,-424.12"/>
<polygon fill="black" stroke="black" points="109.38,-421.19 99.39,-417.67 105,-426.65 109.38,-421.19"/>
</g>
<!-- 4 -->
<g id="node4" class="node">
<title>4</title>
<path fill="#ffffff" stroke="black" d="M262,-425C262,-425 146,-425 146,-425 140,-425 134,-419 134,-413 134,-413 134,-354 134,-354 134,-348 140,-342 146,-342 146,-342 262,-342 262,-342 268,-342 274,-348 274,-354 274,-354 274,-413 274,-413 274,-419 268,-425 262,-425"/>
<text text-anchor="start" x="165.5" y="-409.8" font-family="Helvetica,sans-Serif" font-size="14.00">Fare ≤ 23.35</text>
<text text-anchor="start" x="164" y="-394.8" font-family="Helvetica,sans-Serif" font-size="14.00">entropy = 1.0</text>
<text text-anchor="start" x="159" y="-379.8" font-family="Helvetica,sans-Serif" font-size="14.00">samples = 144</text>
<text text-anchor="start" x="157" y="-364.8" font-family="Helvetica,sans-Serif" font-size="14.00">value = [72, 72]</text>
<text text-anchor="start" x="142" y="-349.8" font-family="Helvetica,sans-Serif" font-size="14.00">class = Not Survived</text>
</g>
<!-- 1&#45;&gt;4 -->
<g id="edge3" class="edge">
<title>1&#45;&gt;4</title>
<path fill="none" stroke="black" d="M204,-460.91C204,-452.65 204,-443.86 204,-435.3"/>
<polygon fill="black" stroke="black" points="207.5,-435.02 204,-425.02 200.5,-435.02 207.5,-435.02"/>
</g>
<!-- 9 -->
<g id="node5" class="node">
<title>9</title>
<path fill="#c3e1f7" stroke="black" d="M104,-298.5C104,-298.5 12,-298.5 12,-298.5 6,-298.5 0,-292.5 0,-286.5 0,-286.5 0,-242.5 0,-242.5 0,-236.5 6,-230.5 12,-230.5 12,-230.5 104,-230.5 104,-230.5 110,-230.5 116,-236.5 116,-242.5 116,-242.5 116,-286.5 116,-286.5 116,-292.5 110,-298.5 104,-298.5"/>
<text text-anchor="start" x="10.5" y="-283.3" font-family="Helvetica,sans-Serif" font-size="14.00">entropy = 0.977</text>
<text text-anchor="start" x="13.5" y="-268.3" font-family="Helvetica,sans-Serif" font-size="14.00">samples = 117</text>
<text text-anchor="start" x="11" y="-253.3" font-family="Helvetica,sans-Serif" font-size="14.00">value = [48, 69]</text>
<text text-anchor="start" x="8" y="-238.3" font-family="Helvetica,sans-Serif" font-size="14.00">class = Survived</text>
</g>
<!-- 4&#45;&gt;9 -->
<g id="edge4" class="edge">
<title>4&#45;&gt;9</title>
<path fill="none" stroke="black" d="M153.35,-341.91C138.47,-329.99 122.23,-316.98 107.44,-305.12"/>
<polygon fill="black" stroke="black" points="109.38,-302.19 99.39,-298.67 105,-307.65 109.38,-302.19"/>
</g>
<!-- 10 -->
<g id="node6" class="node">
<title>10</title>
<path fill="#e89152" stroke="black" d="M262,-298.5C262,-298.5 146,-298.5 146,-298.5 140,-298.5 134,-292.5 134,-286.5 134,-286.5 134,-242.5 134,-242.5 134,-236.5 140,-230.5 146,-230.5 146,-230.5 262,-230.5 262,-230.5 268,-230.5 274,-236.5 274,-242.5 274,-242.5 274,-286.5 274,-286.5 274,-292.5 268,-298.5 262,-298.5"/>
<text text-anchor="start" x="156.5" y="-283.3" font-family="Helvetica,sans-Serif" font-size="14.00">entropy = 0.503</text>
<text text-anchor="start" x="163" y="-268.3" font-family="Helvetica,sans-Serif" font-size="14.00">samples = 27</text>
<text text-anchor="start" x="161" y="-253.3" font-family="Helvetica,sans-Serif" font-size="14.00">value = [24, 3]</text>
<text text-anchor="start" x="142" y="-238.3" font-family="Helvetica,sans-Serif" font-size="14.00">class = Not Survived</text>
</g>
<!-- 4&#45;&gt;10 -->
<g id="edge5" class="edge">
<title>4&#45;&gt;10</title>
<path fill="none" stroke="black" d="M204,-341.91C204,-331.2 204,-319.62 204,-308.78"/>
<polygon fill="black" stroke="black" points="207.5,-308.67 204,-298.67 200.5,-308.67 207.5,-308.67"/>
</g>
<!-- 5 -->
<g id="node8" class="node">
<title>5</title>
<path fill="#e99457" stroke="black" d="M487,-425C487,-425 371,-425 371,-425 365,-425 359,-419 359,-413 359,-413 359,-354 359,-354 359,-348 365,-342 371,-342 371,-342 487,-342 487,-342 493,-342 499,-348 499,-354 499,-354 499,-413 499,-413 499,-419 493,-425 487,-425"/>
<text text-anchor="start" x="396" y="-409.8" font-family="Helvetica,sans-Serif" font-size="14.00">Age ≤ 13.5</text>
<text text-anchor="start" x="381.5" y="-394.8" font-family="Helvetica,sans-Serif" font-size="14.00">entropy = 0.558</text>
<text text-anchor="start" x="384" y="-379.8" font-family="Helvetica,sans-Serif" font-size="14.00">samples = 415</text>
<text text-anchor="start" x="378.5" y="-364.8" font-family="Helvetica,sans-Serif" font-size="14.00">value = [361, 54]</text>
<text text-anchor="start" x="367" y="-349.8" font-family="Helvetica,sans-Serif" font-size="14.00">class = Not Survived</text>
</g>
<!-- 2&#45;&gt;5 -->
<g id="edge7" class="edge">
<title>2&#45;&gt;5</title>
<path fill="none" stroke="black" d="M429,-460.91C429,-452.65 429,-443.86 429,-435.3"/>
<polygon fill="black" stroke="black" points="432.5,-435.02 429,-425.02 425.5,-435.02 432.5,-435.02"/>
</g>
<!-- 6 -->
<g id="node11" class="node">
<title>6</title>
<path fill="#f2c29f" stroke="black" d="M712,-425C712,-425 596,-425 596,-425 590,-425 584,-419 584,-413 584,-413 584,-354 584,-354 584,-348 590,-342 596,-342 596,-342 712,-342 712,-342 718,-342 724,-348 724,-354 724,-354 724,-413 724,-413 724,-419 718,-425 712,-425"/>
<text text-anchor="start" x="619" y="-409.8" font-family="Helvetica,sans-Serif" font-size="14.00">SibSp ≤ 2.5</text>
<text text-anchor="start" x="606.5" y="-394.8" font-family="Helvetica,sans-Serif" font-size="14.00">entropy = 0.924</text>
<text text-anchor="start" x="609" y="-379.8" font-family="Helvetica,sans-Serif" font-size="14.00">samples = 162</text>
<text text-anchor="start" x="603.5" y="-364.8" font-family="Helvetica,sans-Serif" font-size="14.00">value = [107, 55]</text>
<text text-anchor="start" x="592" y="-349.8" font-family="Helvetica,sans-Serif" font-size="14.00">class = Not Survived</text>
</g>
<!-- 2&#45;&gt;6 -->
<g id="edge10" class="edge">
<title>2&#45;&gt;6</title>
<path fill="none" stroke="black" d="M499.27,-464.96C523.27,-452.48 550.27,-438.44 574.92,-425.62"/>
<polygon fill="black" stroke="black" points="576.62,-428.68 583.88,-420.96 573.39,-422.47 576.62,-428.68"/>
</g>
<!-- 7 -->
<g id="node9" class="node">
<title>7</title>
<path fill="#57ace9" stroke="black" d="M396,-298.5C396,-298.5 304,-298.5 304,-298.5 298,-298.5 292,-292.5 292,-286.5 292,-286.5 292,-242.5 292,-242.5 292,-236.5 298,-230.5 304,-230.5 304,-230.5 396,-230.5 396,-230.5 402,-230.5 408,-236.5 408,-242.5 408,-242.5 408,-286.5 408,-286.5 408,-292.5 402,-298.5 396,-298.5"/>
<text text-anchor="start" x="302.5" y="-283.3" font-family="Helvetica,sans-Serif" font-size="14.00">entropy = 0.567</text>
<text text-anchor="start" x="309" y="-268.3" font-family="Helvetica,sans-Serif" font-size="14.00">samples = 15</text>
<text text-anchor="start" x="307" y="-253.3" font-family="Helvetica,sans-Serif" font-size="14.00">value = [2, 13]</text>
<text text-anchor="start" x="300" y="-238.3" font-family="Helvetica,sans-Serif" font-size="14.00">class = Survived</text>
</g>
<!-- 5&#45;&gt;7 -->
<g id="edge8" class="edge">
<title>5&#45;&gt;7</title>
<path fill="none" stroke="black" d="M401.59,-341.91C393.99,-330.65 385.73,-318.42 378.09,-307.11"/>
<polygon fill="black" stroke="black" points="380.89,-305 372.39,-298.67 375.09,-308.91 380.89,-305"/>
</g>
<!-- 8 -->
<g id="node10" class="node">
<title>8</title>
<path fill="#e88f50" stroke="black" d="M554,-298.5C554,-298.5 438,-298.5 438,-298.5 432,-298.5 426,-292.5 426,-286.5 426,-286.5 426,-242.5 426,-242.5 426,-236.5 432,-230.5 438,-230.5 438,-230.5 554,-230.5 554,-230.5 560,-230.5 566,-236.5 566,-242.5 566,-242.5 566,-286.5 566,-286.5 566,-292.5 560,-298.5 554,-298.5"/>
<text text-anchor="start" x="448.5" y="-283.3" font-family="Helvetica,sans-Serif" font-size="14.00">entropy = 0.477</text>
<text text-anchor="start" x="451" y="-268.3" font-family="Helvetica,sans-Serif" font-size="14.00">samples = 400</text>
<text text-anchor="start" x="445.5" y="-253.3" font-family="Helvetica,sans-Serif" font-size="14.00">value = [359, 41]</text>
<text text-anchor="start" x="434" y="-238.3" font-family="Helvetica,sans-Serif" font-size="14.00">class = Not Survived</text>
</g>
<!-- 5&#45;&gt;8 -->
<g id="edge9" class="edge">
<title>5&#45;&gt;8</title>
<path fill="none" stroke="black" d="M452.25,-341.91C458.63,-330.76 465.56,-318.66 471.98,-307.44"/>
<polygon fill="black" stroke="black" points="475.07,-309.08 477.01,-298.67 469,-305.61 475.07,-309.08"/>
</g>
<!-- 11 -->
<g id="node12" class="node">
<title>11</title>
<path fill="#f6d1b7" stroke="black" d="M712,-306C712,-306 596,-306 596,-306 590,-306 584,-300 584,-294 584,-294 584,-235 584,-235 584,-229 590,-223 596,-223 596,-223 712,-223 712,-223 718,-223 724,-229 724,-235 724,-235 724,-294 724,-294 724,-300 718,-306 712,-306"/>
<text text-anchor="start" x="621" y="-290.8" font-family="Helvetica,sans-Serif" font-size="14.00">Age ≤ 13.5</text>
<text text-anchor="start" x="606.5" y="-275.8" font-family="Helvetica,sans-Serif" font-size="14.00">entropy = 0.964</text>
<text text-anchor="start" x="609" y="-260.8" font-family="Helvetica,sans-Serif" font-size="14.00">samples = 139</text>
<text text-anchor="start" x="607" y="-245.8" font-family="Helvetica,sans-Serif" font-size="14.00">value = [85, 54]</text>
<text text-anchor="start" x="592" y="-230.8" font-family="Helvetica,sans-Serif" font-size="14.00">class = Not Survived</text>
</g>
<!-- 6&#45;&gt;11 -->
<g id="edge11" class="edge">
<title>6&#45;&gt;11</title>
<path fill="none" stroke="black" d="M654,-341.91C654,-333.65 654,-324.86 654,-316.3"/>
<polygon fill="black" stroke="black" points="657.5,-316.02 654,-306.02 650.5,-316.02 657.5,-316.02"/>
</g>
<!-- 12 -->
<g id="node17" class="node">
<title>12</title>
<path fill="#e68742" stroke="black" d="M870,-298.5C870,-298.5 754,-298.5 754,-298.5 748,-298.5 742,-292.5 742,-286.5 742,-286.5 742,-242.5 742,-242.5 742,-236.5 748,-230.5 754,-230.5 754,-230.5 870,-230.5 870,-230.5 876,-230.5 882,-236.5 882,-242.5 882,-242.5 882,-286.5 882,-286.5 882,-292.5 876,-298.5 870,-298.5"/>
<text text-anchor="start" x="764.5" y="-283.3" font-family="Helvetica,sans-Serif" font-size="14.00">entropy = 0.258</text>
<text text-anchor="start" x="771" y="-268.3" font-family="Helvetica,sans-Serif" font-size="14.00">samples = 23</text>
<text text-anchor="start" x="769" y="-253.3" font-family="Helvetica,sans-Serif" font-size="14.00">value = [22, 1]</text>
<text text-anchor="start" x="750" y="-238.3" font-family="Helvetica,sans-Serif" font-size="14.00">class = Not Survived</text>
</g>
<!-- 6&#45;&gt;12 -->
<g id="edge16" class="edge">
<title>6&#45;&gt;12</title>
<path fill="none" stroke="black" d="M708.82,-341.91C725.06,-329.88 742.81,-316.73 758.94,-304.79"/>
<polygon fill="black" stroke="black" points="761.26,-307.43 767.21,-298.67 757.09,-301.81 761.26,-307.43"/>
</g>
<!-- 13 -->
<g id="node13" class="node">
<title>13</title>
<path fill="#399de5" stroke="black" d="M627,-179.5C627,-179.5 535,-179.5 535,-179.5 529,-179.5 523,-173.5 523,-167.5 523,-167.5 523,-123.5 523,-123.5 523,-117.5 529,-111.5 535,-111.5 535,-111.5 627,-111.5 627,-111.5 633,-111.5 639,-117.5 639,-123.5 639,-123.5 639,-167.5 639,-167.5 639,-173.5 633,-179.5 627,-179.5"/>
<text text-anchor="start" x="541" y="-164.3" font-family="Helvetica,sans-Serif" font-size="14.00">entropy = 0.0</text>
<text text-anchor="start" x="543.5" y="-149.3" font-family="Helvetica,sans-Serif" font-size="14.00">samples = 7</text>
<text text-anchor="start" x="541.5" y="-134.3" font-family="Helvetica,sans-Serif" font-size="14.00">value = [0, 7]</text>
<text text-anchor="start" x="531" y="-119.3" font-family="Helvetica,sans-Serif" font-size="14.00">class = Survived</text>
</g>
<!-- 11&#45;&gt;13 -->
<g id="edge12" class="edge">
<title>11&#45;&gt;13</title>
<path fill="none" stroke="black" d="M628.67,-222.91C621.72,-211.76 614.17,-199.66 607.17,-188.44"/>
<polygon fill="black" stroke="black" points="609.96,-186.3 601.69,-179.67 604.02,-190 609.96,-186.3"/>
</g>
<!-- 14 -->
<g id="node14" class="node">
<title>14</title>
<path fill="#f3c7a6" stroke="black" d="M785,-187C785,-187 669,-187 669,-187 663,-187 657,-181 657,-175 657,-175 657,-116 657,-116 657,-110 663,-104 669,-104 669,-104 785,-104 785,-104 791,-104 797,-110 797,-116 797,-116 797,-175 797,-175 797,-181 791,-187 785,-187"/>
<text text-anchor="start" x="682.5" y="-171.8" font-family="Helvetica,sans-Serif" font-size="14.00">Pclass_2 ≤ 0.5</text>
<text text-anchor="start" x="679.5" y="-156.8" font-family="Helvetica,sans-Serif" font-size="14.00">entropy = 0.939</text>
<text text-anchor="start" x="682" y="-141.8" font-family="Helvetica,sans-Serif" font-size="14.00">samples = 132</text>
<text text-anchor="start" x="680" y="-126.8" font-family="Helvetica,sans-Serif" font-size="14.00">value = [85, 47]</text>
<text text-anchor="start" x="665" y="-111.8" font-family="Helvetica,sans-Serif" font-size="14.00">class = Not Survived</text>
</g>
<!-- 11&#45;&gt;14 -->
<g id="edge13" class="edge">
<title>11&#45;&gt;14</title>
<path fill="none" stroke="black" d="M679.33,-222.91C684.82,-214.1 690.69,-204.7 696.36,-195.61"/>
<polygon fill="black" stroke="black" points="699.39,-197.36 701.72,-187.02 693.45,-193.65 699.39,-197.36"/>
</g>
<!-- 15 -->
<g id="node15" class="node">
<title>15</title>
<path fill="#f6d4bc" stroke="black" d="M706,-68C706,-68 590,-68 590,-68 584,-68 578,-62 578,-56 578,-56 578,-12 578,-12 578,-6 584,0 590,0 590,0 706,0 706,0 712,0 718,-6 718,-12 718,-12 718,-56 718,-56 718,-62 712,-68 706,-68"/>
<text text-anchor="start" x="604" y="-52.8" font-family="Helvetica,sans-Serif" font-size="14.00">entropy = 0.97</text>
<text text-anchor="start" x="603.5" y="-37.8" font-family="Helvetica,sans-Serif" font-size="14.00">samples = 118</text>
<text text-anchor="start" x="601" y="-22.8" font-family="Helvetica,sans-Serif" font-size="14.00">value = [71, 47]</text>
<text text-anchor="start" x="586" y="-7.8" font-family="Helvetica,sans-Serif" font-size="14.00">class = Not Survived</text>
</g>
<!-- 14&#45;&gt;15 -->
<g id="edge14" class="edge">
<title>14&#45;&gt;15</title>
<path fill="none" stroke="black" d="M697.58,-103.73C691.2,-94.88 684.44,-85.51 678.03,-76.63"/>
<polygon fill="black" stroke="black" points="680.71,-74.36 672.02,-68.3 675.04,-78.46 680.71,-74.36"/>
</g>
<!-- 16 -->
<g id="node16" class="node">
<title>16</title>
<path fill="#e58139" stroke="black" d="M864,-68C864,-68 748,-68 748,-68 742,-68 736,-62 736,-56 736,-56 736,-12 736,-12 736,-6 742,0 748,0 748,0 864,0 864,0 870,0 876,-6 876,-12 876,-12 876,-56 876,-56 876,-62 870,-68 864,-68"/>
<text text-anchor="start" x="766" y="-52.8" font-family="Helvetica,sans-Serif" font-size="14.00">entropy = 0.0</text>
<text text-anchor="start" x="765" y="-37.8" font-family="Helvetica,sans-Serif" font-size="14.00">samples = 14</text>
<text text-anchor="start" x="763" y="-22.8" font-family="Helvetica,sans-Serif" font-size="14.00">value = [14, 0]</text>
<text text-anchor="start" x="744" y="-7.8" font-family="Helvetica,sans-Serif" font-size="14.00">class = Not Survived</text>
</g>
<!-- 14&#45;&gt;16 -->
<g id="edge15" class="edge">
<title>14&#45;&gt;16</title>
<path fill="none" stroke="black" d="M756.42,-103.73C762.8,-94.88 769.56,-85.51 775.97,-76.63"/>
<polygon fill="black" stroke="black" points="778.96,-78.46 781.98,-68.3 773.29,-74.36 778.96,-78.46"/>
</g>
</g>
</svg>
