<?xml version="1.0" encoding="UTF-8" standalone="no"?>
<!DOCTYPE svg PUBLIC "-//W3C//DTD SVG 1.1//EN"
 "http://www.w3.org/Graphics/SVG/1.1/DTD/svg11.dtd">
<!-- Generated by graphviz version 2.50.0 (0)
 -->
<!-- Title: Tree Pages: 1 -->
<svg width="726pt" height="373pt"
 viewBox="0.00 0.00 726.00 373.00" xmlns="http://www.w3.org/2000/svg" xmlns:xlink="http://www.w3.org/1999/xlink">
<g id="graph0" class="graph" transform="scale(1 1) rotate(0) translate(4 369)">
<title>Tree</title>
<polygon fill="white" stroke="transparent" points="-4,4 -4,-369 722,-369 722,4 -4,4"/>
<!-- 0 -->
<g id="node1" class="node">
<title>0</title>
<path fill="#eeac7c" stroke="black" d="M430,-365C430,-365 288,-365 288,-365 282,-365 276,-359 276,-353 276,-353 276,-309 276,-309 276,-303 282,-297 288,-297 288,-297 430,-297 430,-297 436,-297 442,-303 442,-309 442,-309 442,-353 442,-353 442,-359 436,-365 430,-365"/>
<text text-anchor="start" x="314.5" y="-349.8" font-family="Helvetica,sans-Serif" font-size="14.00">Pclass_1 ≤ 0.5</text>
<text text-anchor="start" x="284" y="-334.8" font-family="Helvetica,sans-Serif" font-size="14.00">squared_error = 216.724</text>
<text text-anchor="start" x="314" y="-319.8" font-family="Helvetica,sans-Serif" font-size="14.00">samples = 606</text>
<text text-anchor="start" x="321.5" y="-304.8" font-family="Helvetica,sans-Serif" font-size="14.00">value = 29.6</text>
</g>
<!-- 1 -->
<g id="node2" class="node">
<title>1</title>
<path fill="#f0b88f" stroke="black" d="M338,-261C338,-261 196,-261 196,-261 190,-261 184,-255 184,-249 184,-249 184,-205 184,-205 184,-199 190,-193 196,-193 196,-193 338,-193 338,-193 344,-193 350,-199 350,-205 350,-205 350,-249 350,-249 350,-255 344,-261 338,-261"/>
<text text-anchor="start" x="232" y="-245.8" font-family="Helvetica,sans-Serif" font-size="14.00">SibSp ≤ 1.5</text>
<text text-anchor="start" x="192" y="-230.8" font-family="Helvetica,sans-Serif" font-size="14.00">squared_error = 173.784</text>
<text text-anchor="start" x="222" y="-215.8" font-family="Helvetica,sans-Serif" font-size="14.00">samples = 450</text>
<text text-anchor="start" x="222" y="-200.8" font-family="Helvetica,sans-Serif" font-size="14.00">value = 26.495</text>
</g>
<!-- 0&#45;&gt;1 -->
<g id="edge1" class="edge">
<title>0&#45;&gt;1</title>
<path fill="none" stroke="black" d="M329.13,-296.88C321.1,-287.98 312.31,-278.24 303.94,-268.96"/>
<polygon fill="black" stroke="black" points="306.33,-266.38 297.03,-261.3 301.13,-271.07 306.33,-266.38"/>
<text text-anchor="middle" x="295.75" y="-282.57" font-family="Helvetica,sans-Serif" font-size="14.00">True</text>
</g>
<!-- 2 -->
<g id="node7" class="node">
<title>2</title>
<path fill="#e78945" stroke="black" d="M521.5,-261C521.5,-261 380.5,-261 380.5,-261 374.5,-261 368.5,-255 368.5,-249 368.5,-249 368.5,-205 368.5,-205 368.5,-199 374.5,-193 380.5,-193 380.5,-193 521.5,-193 521.5,-193 527.5,-193 533.5,-199 533.5,-205 533.5,-205 533.5,-249 533.5,-249 533.5,-255 527.5,-261 521.5,-261"/>
<text text-anchor="start" x="416" y="-245.8" font-family="Helvetica,sans-Serif" font-size="14.00">Parch ≤ 1.5</text>
<text text-anchor="start" x="376.5" y="-230.8" font-family="Helvetica,sans-Serif" font-size="14.00">squared_error = 232.611</text>
<text text-anchor="start" x="406" y="-215.8" font-family="Helvetica,sans-Serif" font-size="14.00">samples = 156</text>
<text text-anchor="start" x="406" y="-200.8" font-family="Helvetica,sans-Serif" font-size="14.00">value = 38.554</text>
</g>
<!-- 0&#45;&gt;2 -->
<g id="edge6" class="edge">
<title>0&#45;&gt;2</title>
<path fill="none" stroke="black" d="M388.87,-296.88C396.9,-287.98 405.69,-278.24 414.06,-268.96"/>
<polygon fill="black" stroke="black" points="416.87,-271.07 420.97,-261.3 411.67,-266.38 416.87,-271.07"/>
<text text-anchor="middle" x="422.25" y="-282.57" font-family="Helvetica,sans-Serif" font-size="14.00">False</text>
</g>
<!-- 3 -->
<g id="node3" class="node">
<title>3</title>
<path fill="#efb185" stroke="black" d="M154,-149.5C154,-149.5 12,-149.5 12,-149.5 6,-149.5 0,-143.5 0,-137.5 0,-137.5 0,-108.5 0,-108.5 0,-102.5 6,-96.5 12,-96.5 12,-96.5 154,-96.5 154,-96.5 160,-96.5 166,-102.5 166,-108.5 166,-108.5 166,-137.5 166,-137.5 166,-143.5 160,-149.5 154,-149.5"/>
<text text-anchor="start" x="8" y="-134.3" font-family="Helvetica,sans-Serif" font-size="14.00">squared_error = 154.078</text>
<text text-anchor="start" x="38" y="-119.3" font-family="Helvetica,sans-Serif" font-size="14.00">samples = 402</text>
<text text-anchor="start" x="38" y="-104.3" font-family="Helvetica,sans-Serif" font-size="14.00">value = 28.175</text>
</g>
<!-- 1&#45;&gt;3 -->
<g id="edge2" class="edge">
<title>1&#45;&gt;3</title>
<path fill="none" stroke="black" d="M207.26,-192.88C184.94,-180.51 159.72,-166.53 137.86,-154.41"/>
<polygon fill="black" stroke="black" points="139.48,-151.31 129.04,-149.52 136.09,-157.43 139.48,-151.31"/>
</g>
<!-- 4 -->
<g id="node4" class="node">
<title>4</title>
<path fill="#fceee5" stroke="black" d="M337.5,-157C337.5,-157 196.5,-157 196.5,-157 190.5,-157 184.5,-151 184.5,-145 184.5,-145 184.5,-101 184.5,-101 184.5,-95 190.5,-89 196.5,-89 196.5,-89 337.5,-89 337.5,-89 343.5,-89 349.5,-95 349.5,-101 349.5,-101 349.5,-145 349.5,-145 349.5,-151 343.5,-157 337.5,-157"/>
<text text-anchor="start" x="232" y="-141.8" font-family="Helvetica,sans-Serif" font-size="14.00">Parch ≤ 0.5</text>
<text text-anchor="start" x="192.5" y="-126.8" font-family="Helvetica,sans-Serif" font-size="14.00">squared_error = 117.279</text>
<text text-anchor="start" x="226" y="-111.8" font-family="Helvetica,sans-Serif" font-size="14.00">samples = 48</text>
<text text-anchor="start" x="222" y="-96.8" font-family="Helvetica,sans-Serif" font-size="14.00">value = 12.427</text>
</g>
<!-- 1&#45;&gt;4 -->
<g id="edge3" class="edge">
<title>1&#45;&gt;4</title>
<path fill="none" stroke="black" d="M267,-192.88C267,-184.78 267,-175.98 267,-167.47"/>
<polygon fill="black" stroke="black" points="270.5,-167.3 267,-157.3 263.5,-167.3 270.5,-167.3"/>
</g>
<!-- 7 -->
<g id="node5" class="node">
<title>7</title>
<path fill="#eeaf81" stroke="black" d="M244.5,-53C244.5,-53 117.5,-53 117.5,-53 111.5,-53 105.5,-47 105.5,-41 105.5,-41 105.5,-12 105.5,-12 105.5,-6 111.5,0 117.5,0 117.5,0 244.5,0 244.5,0 250.5,0 256.5,-6 256.5,-12 256.5,-12 256.5,-41 256.5,-41 256.5,-47 250.5,-53 244.5,-53"/>
<text text-anchor="start" x="113.5" y="-37.8" font-family="Helvetica,sans-Serif" font-size="14.00">squared_error = 46.96</text>
<text text-anchor="start" x="140" y="-22.8" font-family="Helvetica,sans-Serif" font-size="14.00">samples = 10</text>
<text text-anchor="start" x="143.5" y="-7.8" font-family="Helvetica,sans-Serif" font-size="14.00">value = 28.8</text>
</g>
<!-- 4&#45;&gt;7 -->
<g id="edge4" class="edge">
<title>4&#45;&gt;7</title>
<path fill="none" stroke="black" d="M236.92,-88.95C228.6,-79.8 219.56,-69.87 211.23,-60.71"/>
<polygon fill="black" stroke="black" points="213.74,-58.28 204.42,-53.24 208.56,-62.99 213.74,-58.28"/>
</g>
<!-- 8 -->
<g id="node6" class="node">
<title>8</title>
<path fill="#ffffff" stroke="black" d="M421,-53C421,-53 287,-53 287,-53 281,-53 275,-47 275,-41 275,-41 275,-12 275,-12 275,-6 281,0 287,0 287,0 421,0 421,0 427,0 433,-6 433,-12 433,-12 433,-41 433,-41 433,-47 427,-53 421,-53"/>
<text text-anchor="start" x="283" y="-37.8" font-family="Helvetica,sans-Serif" font-size="14.00">squared_error = 46.673</text>
<text text-anchor="start" x="313" y="-22.8" font-family="Helvetica,sans-Serif" font-size="14.00">samples = 38</text>
<text text-anchor="start" x="313" y="-7.8" font-family="Helvetica,sans-Serif" font-size="14.00">value = 8.118</text>
</g>
<!-- 4&#45;&gt;8 -->
<g id="edge5" class="edge">
<title>4&#45;&gt;8</title>
<path fill="none" stroke="black" d="M297.43,-88.95C305.85,-79.8 314.99,-69.87 323.42,-60.71"/>
<polygon fill="black" stroke="black" points="326.11,-62.96 330.31,-53.24 320.96,-58.22 326.11,-62.96"/>
</g>
<!-- 5 -->
<g id="node8" class="node">
<title>5</title>
<path fill="#e58139" stroke="black" d="M522,-149.5C522,-149.5 380,-149.5 380,-149.5 374,-149.5 368,-143.5 368,-137.5 368,-137.5 368,-108.5 368,-108.5 368,-102.5 374,-96.5 380,-96.5 380,-96.5 522,-96.5 522,-96.5 528,-96.5 534,-102.5 534,-108.5 534,-108.5 534,-137.5 534,-137.5 534,-143.5 528,-149.5 522,-149.5"/>
<text text-anchor="start" x="376" y="-134.3" font-family="Helvetica,sans-Serif" font-size="14.00">squared_error = 195.378</text>
<text text-anchor="start" x="406" y="-119.3" font-family="Helvetica,sans-Serif" font-size="14.00">samples = 137</text>
<text text-anchor="start" x="406" y="-104.3" font-family="Helvetica,sans-Serif" font-size="14.00">value = 40.544</text>
</g>
<!-- 2&#45;&gt;5 -->
<g id="edge7" class="edge">
<title>2&#45;&gt;5</title>
<path fill="none" stroke="black" d="M451,-192.88C451,-182.33 451,-170.6 451,-159.85"/>
<polygon fill="black" stroke="black" points="454.5,-159.52 451,-149.52 447.5,-159.52 454.5,-159.52"/>
</g>
<!-- 6 -->
<g id="node9" class="node">
<title>6</title>
<path fill="#f2c09d" stroke="black" d="M706,-149.5C706,-149.5 564,-149.5 564,-149.5 558,-149.5 552,-143.5 552,-137.5 552,-137.5 552,-108.5 552,-108.5 552,-102.5 558,-96.5 564,-96.5 564,-96.5 706,-96.5 706,-96.5 712,-96.5 718,-102.5 718,-108.5 718,-108.5 718,-137.5 718,-137.5 718,-143.5 712,-149.5 706,-149.5"/>
<text text-anchor="start" x="560" y="-134.3" font-family="Helvetica,sans-Serif" font-size="14.00">squared_error = 266.678</text>
<text text-anchor="start" x="594" y="-119.3" font-family="Helvetica,sans-Serif" font-size="14.00">samples = 19</text>
<text text-anchor="start" x="590" y="-104.3" font-family="Helvetica,sans-Serif" font-size="14.00">value = 24.206</text>
</g>
<!-- 2&#45;&gt;6 -->
<g id="edge8" class="edge">
<title>2&#45;&gt;6</title>
<path fill="none" stroke="black" d="M510.74,-192.88C533.06,-180.51 558.28,-166.53 580.14,-154.41"/>
<polygon fill="black" stroke="black" points="581.91,-157.43 588.96,-149.52 578.52,-151.31 581.91,-157.43"/>
</g>
</g>
</svg>
