<?xml version="1.0" encoding="UTF-8" standalone="no"?>
<!DOCTYPE svg PUBLIC "-//W3C//DTD SVG 1.1//EN"
 "http://www.w3.org/Graphics/SVG/1.1/DTD/svg11.dtd">
<!-- Generated by graphviz version 2.50.0 (0)
 -->
<!-- Title: Tree Pages: 1 -->
<svg width="579pt" height="685pt"
 viewBox="0.00 0.00 579.00 685.00" xmlns="http://www.w3.org/2000/svg" xmlns:xlink="http://www.w3.org/1999/xlink">
<g id="graph0" class="graph" transform="scale(1 1) rotate(0) translate(4 681)">
<title>Tree</title>
<polygon fill="white" stroke="transparent" points="-4,4 -4,-681 575,-681 575,4 -4,4"/>
<!-- 0 -->
<g id="node1" class="node">
<title>0</title>
<path fill="#eda673" stroke="black" d="M425,-677C425,-677 336,-677 336,-677 330,-677 324,-671 324,-665 324,-665 324,-621 324,-621 324,-615 330,-609 336,-609 336,-609 425,-609 425,-609 431,-609 437,-615 437,-621 437,-621 437,-665 437,-665 437,-671 431,-677 425,-677"/>
<text text-anchor="start" x="345.5" y="-661.8" font-family="Helvetica,sans-Serif" font-size="14.00">SibSp ≤ 2.5</text>
<text text-anchor="start" x="332" y="-646.8" font-family="Helvetica,sans-Serif" font-size="14.00">poisson = 3.885</text>
<text text-anchor="start" x="335.5" y="-631.8" font-family="Helvetica,sans-Serif" font-size="14.00">samples = 714</text>
<text text-anchor="start" x="335.5" y="-616.8" font-family="Helvetica,sans-Serif" font-size="14.00">value = 29.699</text>
</g>
<!-- 1 -->
<g id="node2" class="node">
<title>1</title>
<path fill="#eca26d" stroke="black" d="M362,-573C362,-573 273,-573 273,-573 267,-573 261,-567 261,-561 261,-561 261,-517 261,-517 261,-511 267,-505 273,-505 273,-505 362,-505 362,-505 368,-505 374,-511 374,-517 374,-517 374,-561 374,-561 374,-567 368,-573 362,-573"/>
<text text-anchor="start" x="273" y="-557.8" font-family="Helvetica,sans-Serif" font-size="14.00">Pclass_1 ≤ 0.5</text>
<text text-anchor="start" x="269" y="-542.8" font-family="Helvetica,sans-Serif" font-size="14.00">poisson = 3.447</text>
<text text-anchor="start" x="272.5" y="-527.8" font-family="Helvetica,sans-Serif" font-size="14.00">samples = 679</text>
<text text-anchor="start" x="272.5" y="-512.8" font-family="Helvetica,sans-Serif" font-size="14.00">value = 30.722</text>
</g>
<!-- 0&#45;&gt;1 -->
<g id="edge1" class="edge">
<title>0&#45;&gt;1</title>
<path fill="none" stroke="black" d="M360.05,-608.88C354.76,-600.33 349.01,-591.01 343.49,-582.07"/>
<polygon fill="black" stroke="black" points="346.3,-579.97 338.07,-573.3 340.34,-583.65 346.3,-579.97"/>
<text text-anchor="middle" x="332.32" y="-593.93" font-family="Helvetica,sans-Serif" font-size="14.00">True</text>
</g>
<!-- 2 -->
<g id="node15" class="node">
<title>2</title>
<path fill="#fbebe0" stroke="black" d="M485,-565.5C485,-565.5 404,-565.5 404,-565.5 398,-565.5 392,-559.5 392,-553.5 392,-553.5 392,-524.5 392,-524.5 392,-518.5 398,-512.5 404,-512.5 404,-512.5 485,-512.5 485,-512.5 491,-512.5 497,-518.5 497,-524.5 497,-524.5 497,-553.5 497,-553.5 497,-559.5 491,-565.5 485,-565.5"/>
<text text-anchor="start" x="400" y="-550.3" font-family="Helvetica,sans-Serif" font-size="14.00">poisson = 3.07</text>
<text text-anchor="start" x="403.5" y="-535.3" font-family="Helvetica,sans-Serif" font-size="14.00">samples = 35</text>
<text text-anchor="start" x="403.5" y="-520.3" font-family="Helvetica,sans-Serif" font-size="14.00">value = 9.857</text>
</g>
<!-- 0&#45;&gt;2 -->
<g id="edge14" class="edge">
<title>0&#45;&gt;2</title>
<path fill="none" stroke="black" d="M401.28,-608.88C408.25,-597.78 416.03,-585.37 423.05,-574.18"/>
<polygon fill="black" stroke="black" points="426.14,-575.85 428.49,-565.52 420.21,-572.13 426.14,-575.85"/>
<text text-anchor="middle" x="434.07" y="-586.19" font-family="Helvetica,sans-Serif" font-size="14.00">False</text>
</g>
<!-- 3 -->
<g id="node3" class="node">
<title>3</title>
<path fill="#eeac7d" stroke="black" d="M297.5,-469C297.5,-469 203.5,-469 203.5,-469 197.5,-469 191.5,-463 191.5,-457 191.5,-457 191.5,-413 191.5,-413 191.5,-407 197.5,-401 203.5,-401 203.5,-401 297.5,-401 297.5,-401 303.5,-401 309.5,-407 309.5,-413 309.5,-413 309.5,-457 309.5,-457 309.5,-463 303.5,-469 297.5,-469"/>
<text text-anchor="start" x="199.5" y="-453.8" font-family="Helvetica,sans-Serif" font-size="14.00">Survived_0 ≤ 0.5</text>
<text text-anchor="start" x="202" y="-438.8" font-family="Helvetica,sans-Serif" font-size="14.00">poisson = 3.121</text>
<text text-anchor="start" x="205.5" y="-423.8" font-family="Helvetica,sans-Serif" font-size="14.00">samples = 496</text>
<text text-anchor="start" x="205.5" y="-408.8" font-family="Helvetica,sans-Serif" font-size="14.00">value = 27.852</text>
</g>
<!-- 1&#45;&gt;3 -->
<g id="edge2" class="edge">
<title>1&#45;&gt;3</title>
<path fill="none" stroke="black" d="M295.75,-504.88C290.07,-496.24 283.88,-486.82 277.95,-477.79"/>
<polygon fill="black" stroke="black" points="280.79,-475.74 272.37,-469.3 274.94,-479.58 280.79,-475.74"/>
</g>
<!-- 4 -->
<g id="node12" class="node">
<title>4</title>
<path fill="#e68742" stroke="black" d="M429,-469C429,-469 340,-469 340,-469 334,-469 328,-463 328,-457 328,-457 328,-413 328,-413 328,-407 334,-401 340,-401 340,-401 429,-401 429,-401 435,-401 441,-407 441,-413 441,-413 441,-457 441,-457 441,-463 435,-469 429,-469"/>
<text text-anchor="start" x="349.5" y="-453.8" font-family="Helvetica,sans-Serif" font-size="14.00">Parch ≤ 1.5</text>
<text text-anchor="start" x="336" y="-438.8" font-family="Helvetica,sans-Serif" font-size="14.00">poisson = 3.046</text>
<text text-anchor="start" x="339.5" y="-423.8" font-family="Helvetica,sans-Serif" font-size="14.00">samples = 183</text>
<text text-anchor="start" x="347" y="-408.8" font-family="Helvetica,sans-Serif" font-size="14.00">value = 38.5</text>
</g>
<!-- 1&#45;&gt;4 -->
<g id="edge11" class="edge">
<title>1&#45;&gt;4</title>
<path fill="none" stroke="black" d="M339.25,-504.88C344.93,-496.24 351.12,-486.82 357.05,-477.79"/>
<polygon fill="black" stroke="black" points="360.06,-479.58 362.63,-469.3 354.21,-475.74 360.06,-479.58"/>
</g>
<!-- 5 -->
<g id="node4" class="node">
<title>5</title>
<path fill="#f1bc95" stroke="black" d="M169,-365C169,-365 80,-365 80,-365 74,-365 68,-359 68,-353 68,-353 68,-309 68,-309 68,-303 74,-297 80,-297 80,-297 169,-297 169,-297 175,-297 181,-303 181,-309 181,-309 181,-353 181,-353 181,-359 175,-365 169,-365"/>
<text text-anchor="start" x="89.5" y="-349.8" font-family="Helvetica,sans-Serif" font-size="14.00">Parch ≤ 0.5</text>
<text text-anchor="start" x="76" y="-334.8" font-family="Helvetica,sans-Serif" font-size="14.00">poisson = 4.724</text>
<text text-anchor="start" x="79.5" y="-319.8" font-family="Helvetica,sans-Serif" font-size="14.00">samples = 163</text>
<text text-anchor="start" x="79.5" y="-304.8" font-family="Helvetica,sans-Serif" font-size="14.00">value = 23.416</text>
</g>
<!-- 3&#45;&gt;5 -->
<g id="edge3" class="edge">
<title>3&#45;&gt;5</title>
<path fill="none" stroke="black" d="M209.59,-400.88C198.15,-391.62 185.59,-381.45 173.72,-371.85"/>
<polygon fill="black" stroke="black" points="175.61,-368.87 165.63,-365.3 171.2,-374.31 175.61,-368.87"/>
</g>
<!-- 6 -->
<g id="node11" class="node">
<title>6</title>
<path fill="#eca571" stroke="black" d="M293.5,-357.5C293.5,-357.5 211.5,-357.5 211.5,-357.5 205.5,-357.5 199.5,-351.5 199.5,-345.5 199.5,-345.5 199.5,-316.5 199.5,-316.5 199.5,-310.5 205.5,-304.5 211.5,-304.5 211.5,-304.5 293.5,-304.5 293.5,-304.5 299.5,-304.5 305.5,-310.5 305.5,-316.5 305.5,-316.5 305.5,-345.5 305.5,-345.5 305.5,-351.5 299.5,-357.5 293.5,-357.5"/>
<text text-anchor="start" x="208" y="-342.3" font-family="Helvetica,sans-Serif" font-size="14.00">poisson = 2.07</text>
<text text-anchor="start" x="207.5" y="-327.3" font-family="Helvetica,sans-Serif" font-size="14.00">samples = 333</text>
<text text-anchor="start" x="207.5" y="-312.3" font-family="Helvetica,sans-Serif" font-size="14.00">value = 30.024</text>
</g>
<!-- 3&#45;&gt;6 -->
<g id="edge10" class="edge">
<title>3&#45;&gt;6</title>
<path fill="none" stroke="black" d="M251.15,-400.88C251.36,-390.22 251.59,-378.35 251.8,-367.52"/>
<polygon fill="black" stroke="black" points="255.3,-367.59 252,-357.52 248.3,-367.45 255.3,-367.59"/>
</g>
<!-- 7 -->
<g id="node5" class="node">
<title>7</title>
<path fill="#eeac7c" stroke="black" d="M101,-253.5C101,-253.5 12,-253.5 12,-253.5 6,-253.5 0,-247.5 0,-241.5 0,-241.5 0,-212.5 0,-212.5 0,-206.5 6,-200.5 12,-200.5 12,-200.5 101,-200.5 101,-200.5 107,-200.5 113,-206.5 113,-212.5 113,-212.5 113,-241.5 113,-241.5 113,-247.5 107,-253.5 101,-253.5"/>
<text text-anchor="start" x="8" y="-238.3" font-family="Helvetica,sans-Serif" font-size="14.00">poisson = 1.838</text>
<text text-anchor="start" x="15.5" y="-223.3" font-family="Helvetica,sans-Serif" font-size="14.00">samples = 98</text>
<text text-anchor="start" x="11.5" y="-208.3" font-family="Helvetica,sans-Serif" font-size="14.00">value = 28.036</text>
</g>
<!-- 5&#45;&gt;7 -->
<g id="edge4" class="edge">
<title>5&#45;&gt;7</title>
<path fill="none" stroke="black" d="M102.42,-296.88C94.94,-285.67 86.58,-273.13 79.07,-261.85"/>
<polygon fill="black" stroke="black" points="81.97,-259.9 73.51,-253.52 76.15,-263.78 81.97,-259.9"/>
</g>
<!-- 8 -->
<g id="node6" class="node">
<title>8</title>
<path fill="#f6d4bc" stroke="black" d="M241.5,-261C241.5,-261 143.5,-261 143.5,-261 137.5,-261 131.5,-255 131.5,-249 131.5,-249 131.5,-205 131.5,-205 131.5,-199 137.5,-193 143.5,-193 143.5,-193 241.5,-193 241.5,-193 247.5,-193 253.5,-199 253.5,-205 253.5,-205 253.5,-249 253.5,-249 253.5,-255 247.5,-261 241.5,-261"/>
<text text-anchor="start" x="139.5" y="-245.8" font-family="Helvetica,sans-Serif" font-size="14.00">Sex_female ≤ 0.5</text>
<text text-anchor="start" x="144" y="-230.8" font-family="Helvetica,sans-Serif" font-size="14.00">poisson = 7.272</text>
<text text-anchor="start" x="151.5" y="-215.8" font-family="Helvetica,sans-Serif" font-size="14.00">samples = 65</text>
<text text-anchor="start" x="151.5" y="-200.8" font-family="Helvetica,sans-Serif" font-size="14.00">value = 16.45</text>
</g>
<!-- 5&#45;&gt;8 -->
<g id="edge5" class="edge">
<title>5&#45;&gt;8</title>
<path fill="none" stroke="black" d="M146.58,-296.88C152.34,-288.24 158.62,-278.82 164.64,-269.79"/>
<polygon fill="black" stroke="black" points="167.67,-271.56 170.3,-261.3 161.84,-267.68 167.67,-271.56"/>
</g>
<!-- 9 -->
<g id="node7" class="node">
<title>9</title>
<path fill="#ffffff" stroke="black" d="M167,-149.5C167,-149.5 78,-149.5 78,-149.5 72,-149.5 66,-143.5 66,-137.5 66,-137.5 66,-108.5 66,-108.5 66,-102.5 72,-96.5 78,-96.5 78,-96.5 167,-96.5 167,-96.5 173,-96.5 179,-102.5 179,-108.5 179,-108.5 179,-137.5 179,-137.5 179,-143.5 173,-149.5 167,-149.5"/>
<text text-anchor="start" x="74" y="-134.3" font-family="Helvetica,sans-Serif" font-size="14.00">poisson = 2.174</text>
<text text-anchor="start" x="81.5" y="-119.3" font-family="Helvetica,sans-Serif" font-size="14.00">samples = 17</text>
<text text-anchor="start" x="81.5" y="-104.3" font-family="Helvetica,sans-Serif" font-size="14.00">value = 4.279</text>
</g>
<!-- 8&#45;&gt;9 -->
<g id="edge6" class="edge">
<title>8&#45;&gt;9</title>
<path fill="none" stroke="black" d="M169.77,-192.88C162.07,-181.67 153.47,-169.13 145.73,-157.85"/>
<polygon fill="black" stroke="black" points="148.56,-155.78 140.01,-149.52 142.79,-159.75 148.56,-155.78"/>
</g>
<!-- 10 -->
<g id="node8" class="node">
<title>10</title>
<path fill="#f3c5a4" stroke="black" d="M315.5,-157C315.5,-157 209.5,-157 209.5,-157 203.5,-157 197.5,-151 197.5,-145 197.5,-145 197.5,-101 197.5,-101 197.5,-95 203.5,-89 209.5,-89 209.5,-89 315.5,-89 315.5,-89 321.5,-89 327.5,-95 327.5,-101 327.5,-101 327.5,-145 327.5,-145 327.5,-151 321.5,-157 315.5,-157"/>
<text text-anchor="start" x="205.5" y="-141.8" font-family="Helvetica,sans-Serif" font-size="14.00">Embarked_C ≤ 0.5</text>
<text text-anchor="start" x="214" y="-126.8" font-family="Helvetica,sans-Serif" font-size="14.00">poisson = 6.286</text>
<text text-anchor="start" x="221.5" y="-111.8" font-family="Helvetica,sans-Serif" font-size="14.00">samples = 48</text>
<text text-anchor="start" x="221.5" y="-96.8" font-family="Helvetica,sans-Serif" font-size="14.00">value = 20.76</text>
</g>
<!-- 8&#45;&gt;10 -->
<g id="edge7" class="edge">
<title>8&#45;&gt;10</title>
<path fill="none" stroke="black" d="M215.23,-192.88C221.16,-184.24 227.62,-174.82 233.82,-165.79"/>
<polygon fill="black" stroke="black" points="236.87,-167.52 239.65,-157.3 231.1,-163.56 236.87,-167.52"/>
</g>
<!-- 13 -->
<g id="node9" class="node">
<title>13</title>
<path fill="#f1bc96" stroke="black" d="M241,-53C241,-53 152,-53 152,-53 146,-53 140,-47 140,-41 140,-41 140,-12 140,-12 140,-6 146,0 152,0 152,0 241,0 241,0 247,0 253,-6 253,-12 253,-12 253,-41 253,-41 253,-47 247,-53 241,-53"/>
<text text-anchor="start" x="148" y="-37.8" font-family="Helvetica,sans-Serif" font-size="14.00">poisson = 5.432</text>
<text text-anchor="start" x="155.5" y="-22.8" font-family="Helvetica,sans-Serif" font-size="14.00">samples = 39</text>
<text text-anchor="start" x="151.5" y="-7.8" font-family="Helvetica,sans-Serif" font-size="14.00">value = 23.256</text>
</g>
<!-- 10&#45;&gt;13 -->
<g id="edge8" class="edge">
<title>10&#45;&gt;13</title>
<path fill="none" stroke="black" d="M239.42,-88.95C233.22,-80.07 226.51,-70.46 220.27,-61.54"/>
<polygon fill="black" stroke="black" points="223.07,-59.43 214.47,-53.24 217.33,-63.44 223.07,-59.43"/>
</g>
<!-- 14 -->
<g id="node10" class="node">
<title>14</title>
<path fill="#fbebe0" stroke="black" d="M372,-53C372,-53 283,-53 283,-53 277,-53 271,-47 271,-41 271,-41 271,-12 271,-12 271,-6 277,0 283,0 283,0 372,0 372,0 378,0 384,-6 384,-12 384,-12 384,-41 384,-41 384,-47 378,-53 372,-53"/>
<text text-anchor="start" x="279" y="-37.8" font-family="Helvetica,sans-Serif" font-size="14.00">poisson = 5.867</text>
<text text-anchor="start" x="290" y="-22.8" font-family="Helvetica,sans-Serif" font-size="14.00">samples = 9</text>
<text text-anchor="start" x="286.5" y="-7.8" font-family="Helvetica,sans-Serif" font-size="14.00">value = 9.944</text>
</g>
<!-- 10&#45;&gt;14 -->
<g id="edge9" class="edge">
<title>10&#45;&gt;14</title>
<path fill="none" stroke="black" d="M285.23,-88.95C291.34,-80.07 297.95,-70.46 304.09,-61.54"/>
<polygon fill="black" stroke="black" points="307.01,-63.46 309.8,-53.24 301.25,-59.49 307.01,-63.46"/>
</g>
<!-- 11 -->
<g id="node13" class="node">
<title>11</title>
<path fill="#e58139" stroke="black" d="M428,-357.5C428,-357.5 339,-357.5 339,-357.5 333,-357.5 327,-351.5 327,-345.5 327,-345.5 327,-316.5 327,-316.5 327,-310.5 333,-304.5 339,-304.5 339,-304.5 428,-304.5 428,-304.5 434,-304.5 440,-310.5 440,-316.5 440,-316.5 440,-345.5 440,-345.5 440,-351.5 434,-357.5 428,-357.5"/>
<text text-anchor="start" x="335" y="-342.3" font-family="Helvetica,sans-Serif" font-size="14.00">poisson = 2.343</text>
<text text-anchor="start" x="338.5" y="-327.3" font-family="Helvetica,sans-Serif" font-size="14.00">samples = 164</text>
<text text-anchor="start" x="338.5" y="-312.3" font-family="Helvetica,sans-Serif" font-size="14.00">value = 40.155</text>
</g>
<!-- 4&#45;&gt;11 -->
<g id="edge12" class="edge">
<title>4&#45;&gt;11</title>
<path fill="none" stroke="black" d="M384.18,-400.88C384.07,-390.33 383.96,-378.6 383.85,-367.85"/>
<polygon fill="black" stroke="black" points="387.35,-367.49 383.75,-357.52 380.35,-367.55 387.35,-367.49"/>
</g>
<!-- 12 -->
<g id="node14" class="node">
<title>12</title>
<path fill="#f1b991" stroke="black" d="M559,-357.5C559,-357.5 470,-357.5 470,-357.5 464,-357.5 458,-351.5 458,-345.5 458,-345.5 458,-316.5 458,-316.5 458,-310.5 464,-304.5 470,-304.5 470,-304.5 559,-304.5 559,-304.5 565,-304.5 571,-310.5 571,-316.5 571,-316.5 571,-345.5 571,-345.5 571,-351.5 565,-357.5 559,-357.5"/>
<text text-anchor="start" x="466" y="-342.3" font-family="Helvetica,sans-Serif" font-size="14.00">poisson = 5.753</text>
<text text-anchor="start" x="473.5" y="-327.3" font-family="Helvetica,sans-Serif" font-size="14.00">samples = 19</text>
<text text-anchor="start" x="469.5" y="-312.3" font-family="Helvetica,sans-Serif" font-size="14.00">value = 24.206</text>
</g>
<!-- 4&#45;&gt;12 -->
<g id="edge13" class="edge">
<title>4&#45;&gt;12</title>
<path fill="none" stroke="black" d="M426.71,-400.88C441.85,-389.01 458.87,-375.65 473.87,-363.88"/>
<polygon fill="black" stroke="black" points="476.27,-366.45 481.97,-357.52 471.95,-360.94 476.27,-366.45"/>
</g>
</g>
</svg>
